<?xml version="1.0" encoding="iso-8859-1"?>
<!-- Generator: Adobe Illustrator 19.0.0, SVG Export Plug-In . SVG Version: 6.00 Build 0)  -->
<svg version="1.1" id="Capa_1" xmlns="http://www.w3.org/2000/svg" xmlns:xlink="http://www.w3.org/1999/xlink" x="0px" y="0px"
	 viewBox="0 0 512 512" style="enable-background:new 0 0 512 512;" xml:space="preserve">
<g>
	<g>
		<g>
			<path d="M128,288H24c-4.418,0-8-3.582-8-8V24c0-4.418,3.582-8,8-8h396.688l-66.344,66.344c-1.5,1.5-2.344,3.534-2.344,5.656v104
				h16V91.312l77.656-77.656c1.499-1.5,2.342-3.534,2.342-5.654C447.999,3.583,444.418,0.001,440,0H24C10.745,0,0,10.745,0,24v256
				c0,13.255,10.745,24,24,24h104V288z"/>
			<path d="M488,208H168c-13.255,0-24,10.745-24,24v188.688l-77.656,77.656c-1.499,1.5-2.342,3.534-2.342,5.654
				c-0.001,4.418,3.58,8.001,7.998,8.002h416c13.255,0,24-10.745,24-24V232C512,218.745,501.255,208,488,208z M496,488
				c0,4.418-3.582,8-8,8H91.312l66.344-66.344c1.5-1.5,2.344-3.534,2.344-5.656V232c0-4.418,3.582-8,8-8h320c4.418,0,8,3.582,8,8
				V488z"/>
			<path d="M272,184v-64c0-39.765-32.235-72-72-72c-39.764,0-72,32.235-72,72v80h16v-48h112v32H272z M144,136v-16
				c0-30.928,25.072-56,56-56c30.928,0,56,25.072,56,56v16H144z"/>
			<path d="M400,384v-48c0-39.765-32.235-72-72-72c-39.764,0-72,32.235-72,72v48c0.044,39.746,32.254,71.956,72,72
				c12.032-0.013,23.363-2.99,33.331-8.215C373.173,452.777,388.398,456,408,456v-16c-12.154,0-22.255-1.368-30.654-3.642
				C391.267,423.232,399.977,404.639,400,384z M328,440c-30.928,0-56-25.072-56-56v-48c0.035-30.913,25.087-55.965,56-56
				c30.913,0.035,55.965,25.087,56,56v48c0,18.78-9.254,35.389-23.441,45.548C336.698,415.827,336,393.307,336,391.944L328,392h-8
				c0,0.413,0.427,26.892,24.036,45.658C338.954,439.174,333.575,440,328,440z"/>
			<path d="M32,232v32c0,4.418,3.582,8,8,8h32v-16H48v-24H32z"/>
			<path d="M464,464h-24v16h32c4.418,0,8-3.582,8-8v-32h-16V464z"/>
		</g>
	</g>
</g>
<g>
</g>
<g>
</g>
<g>
</g>
<g>
</g>
<g>
</g>
<g>
</g>
<g>
</g>
<g>
</g>
<g>
</g>
<g>
</g>
<g>
</g>
<g>
</g>
<g>
</g>
<g>
</g>
<g>
</g>
</svg>
