<!-- Generated by IcoMoon.io -->
<svg version="1.1" xmlns="http://www.w3.org/2000/svg" width="1024" height="1024" viewBox="0 0 1024 1024">
<title></title>
<g id="icomoon-ignore">
</g>
<path d="M844.8 1024h-665.6c-42.342 0-76.8-34.458-76.8-76.8v-819.2c0-42.342 34.458-76.8 76.8-76.8h665.6c42.342 0 76.8 34.458 76.8 76.8v819.2c0 42.342-34.458 76.8-76.8 76.8zM179.2 102.4c-14.131 0-25.6 11.469-25.6 25.6v819.2c0 14.131 11.469 25.6 25.6 25.6h665.6c14.131 0 25.6-11.469 25.6-25.6v-819.2c0-14.131-11.469-25.6-25.6-25.6h-665.6zM640 256h-358.4c-14.131 0-25.6-11.469-25.6-25.6s11.469-25.6 25.6-25.6h358.4c14.131 0 25.6 11.469 25.6 25.6s-11.469 25.6-25.6 25.6zM742.4 358.4h-460.8c-14.131 0-25.6-11.469-25.6-25.6s11.469-25.6 25.6-25.6h460.8c14.131 0 25.6 11.469 25.6 25.6s-11.469 25.6-25.6 25.6zM742.4 460.8h-460.8c-14.131 0-25.6-11.469-25.6-25.6s11.469-25.6 25.6-25.6h460.8c14.131 0 25.6 11.469 25.6 25.6s-11.469 25.6-25.6 25.6zM537.6 563.2h-256c-14.131 0-25.6-11.469-25.6-25.6s11.469-25.6 25.6-25.6h256c14.131 0 25.6 11.469 25.6 25.6s-11.469 25.6-25.6 25.6zM742.4 768h-460.8c-14.131 0-25.6-11.469-25.6-25.6s11.469-25.6 25.6-25.6h460.8c14.131 0 25.6 11.469 25.6 25.6s-11.469 25.6-25.6 25.6zM640 870.4h-358.4c-14.131 0-25.6-11.469-25.6-25.6s11.469-25.6 25.6-25.6h358.4c14.131 0 25.6 11.469 25.6 25.6s-11.469 25.6-25.6 25.6z"></path>
</svg>
