<!-- Generated by IcoMoon.io -->
<svg version="1.1" xmlns="http://www.w3.org/2000/svg" width="1024" height="1024" viewBox="0 0 1024 1024">
<title></title>
<g id="icomoon-ignore">
</g>
<path d="M947.2 921.6h-870.4c-42.342 0-76.8-34.458-76.8-76.8v-665.6c0-42.342 34.458-76.8 76.8-76.8h870.4c42.342 0 76.8 34.458 76.8 76.8v665.6c0 42.342-34.458 76.8-76.8 76.8zM76.8 153.6c-14.131 0-25.6 11.469-25.6 25.6v665.6c0 14.131 11.469 25.6 25.6 25.6h870.4c14.131 0 25.6-11.469 25.6-25.6v-665.6c0-14.131-11.469-25.6-25.6-25.6h-870.4zM486.4 307.2h-307.2c-14.131 0-25.6-11.469-25.6-25.6s11.469-25.6 25.6-25.6h307.2c14.131 0 25.6 11.469 25.6 25.6s-11.469 25.6-25.6 25.6zM486.4 460.8h-307.2c-14.131 0-25.6-11.469-25.6-25.6s11.469-25.6 25.6-25.6h307.2c14.131 0 25.6 11.469 25.6 25.6s-11.469 25.6-25.6 25.6zM486.4 563.2h-307.2c-14.131 0-25.6-11.469-25.6-25.6s11.469-25.6 25.6-25.6h307.2c14.131 0 25.6 11.469 25.6 25.6s-11.469 25.6-25.6 25.6zM486.4 665.6h-307.2c-14.131 0-25.6-11.469-25.6-25.6s11.469-25.6 25.6-25.6h307.2c14.131 0 25.6 11.469 25.6 25.6s-11.469 25.6-25.6 25.6zM435.2 768h-256c-14.131 0-25.6-11.469-25.6-25.6s11.469-25.6 25.6-25.6h256c14.131 0 25.6 11.469 25.6 25.6s-11.469 25.6-25.6 25.6zM918.682 335.053l-41.626-30.259-15.923-48.947h-51.456l-41.626-30.259-41.626 30.259h-51.456l-15.923 48.947-41.626 30.259 15.923 48.947-15.923 48.947 41.626 30.259 6.758 20.787c-0.102 0.819-0.102 1.587-0.102 2.406v256c0 10.342 6.246 19.712 15.821 23.654s20.582 1.792 27.904-5.53l58.675-58.675 58.675 58.675c4.915 4.915 11.418 7.526 18.125 7.475 3.277 0 6.605-0.614 9.779-1.946 9.574-3.942 15.821-13.312 15.821-23.654v-256c0-0.819-0.051-1.638-0.102-2.406l6.758-20.787 41.626-30.259-15.923-48.947 15.923-48.947zM677.53 354.611l24.986-18.176 9.574-29.389h30.925l24.986-18.176 24.986 18.176h30.925l9.574 29.389 24.986 18.176-9.574 29.389 9.574 29.389-24.986 18.176-9.574 29.389h-30.925l-24.986 18.176-24.986-18.176h-30.925l-9.574-29.389-24.986-18.176 9.574-29.389-9.574-29.389zM786.125 647.475c-9.984-9.984-26.214-9.984-36.198 0l-33.075 33.075v-168.448h9.574l41.626 30.259 41.626-30.259h9.574v168.448l-33.075-33.075z"></path>
</svg>
