<!-- Generated by IcoMoon.io -->
<svg version="1.1" xmlns="http://www.w3.org/2000/svg" width="1024" height="1024" viewBox="0 0 1024 1024">
<title></title>
<g id="icomoon-ignore">
</g>
<path d="M968.499 573.85c22.682-26.163 35.584-69.376 35.584-110.541 0-27.187-5.888-50.995-17.050-68.864-14.541-23.245-37.786-36.045-65.434-36.045h-134.042c72.96-132.659 91.392-232.602 54.784-297.318-25.549-45.107-72.346-61.082-104.704-61.082-12.8 0-23.654 9.472-25.344 22.17-9.165 67.533-60.826 148.122-141.722 221.082-77.517 69.888-172.749 125.747-270.643 159.232-12.339-26.010-38.81-44.032-69.427-44.032h-153.6c-42.342 0-76.8 34.458-76.8 76.8v460.8c0 42.342 34.458 76.8 76.8 76.8h153.6c32.461 0 60.211-20.224 71.475-48.742 100.403 12.595 138.189 32.768 174.797 52.326 45.824 24.474 89.037 47.616 230.554 47.616 36.864 0 71.578-9.626 97.792-27.085 25.6-17.050 41.984-41.011 47.411-68.762 20.429-8.294 38.554-27.443 52.429-55.91 13.517-27.699 22.272-63.078 22.272-90.163 0-5.069-0.307-9.728-0.87-14.029 12.954-9.523 24.576-24.218 34.15-43.571 13.824-27.904 22.118-62.874 22.118-93.491 0-21.709-4.045-39.782-11.981-53.811-0.666-1.126-1.331-2.253-1.997-3.328zM230.4 921.6h-153.6c-14.131 0-25.6-11.469-25.6-25.6v-460.8c0-14.131 11.469-25.6 25.6-25.6h153.6c14.131 0 25.6 11.469 25.6 25.6v460.749c0 0 0 0.051 0 0.051 0 14.131-11.469 25.6-25.6 25.6zM938.957 526.029c-7.731 15.565-15.565 21.197-18.944 21.197-14.131 0-25.6 11.469-25.6 25.6s11.469 25.6 25.6 25.6c2.15 0 3.686 0 5.99 3.994 3.379 5.99 5.325 16.384 5.325 28.57 0 22.784-6.451 49.869-16.794 70.758-10.138 20.429-20.429 27.853-24.934 27.853-14.131 0-25.6 11.469-25.6 25.6 0 9.062 4.71 17.050 11.827 21.606 1.587 16.23-5.99 59.648-25.651 87.962-7.424 10.701-15.258 16.845-21.402 16.845-14.131 0-25.6 11.469-25.6 25.6 0 45.056-49.766 65.587-96 65.587-128.666 0-164.71-19.251-206.438-41.574-39.014-20.838-82.842-44.288-193.587-58.061v-419.174c107.571-35.277 212.582-96.102 297.574-172.698 81.562-73.523 135.117-152.986 153.293-226.611 13.926 4.454 29.645 13.875 39.731 31.642 17.101 30.208 29.901 107.315-76.442 284.518-4.762 7.885-4.864 17.766-0.307 25.805s13.056 13.005 22.272 13.005h178.33c10.189 0 16.742 3.584 22.016 11.981 5.99 9.574 9.267 24.422 9.267 41.728 0 21.709-5.222 45.158-13.926 62.72z"></path>
</svg>
