<!-- Generated by IcoMoon.io -->
<svg version="1.1" xmlns="http://www.w3.org/2000/svg" width="1024" height="1024" viewBox="0 0 1024 1024">
<title></title>
<g id="icomoon-ignore">
</g>
<path d="M486.4 563.2c-155.29 0-281.6-126.31-281.6-281.6s126.31-281.6 281.6-281.6 281.6 126.31 281.6 281.6-126.31 281.6-281.6 281.6zM486.4 51.2c-127.027 0-230.4 103.373-230.4 230.4s103.373 230.4 230.4 230.4c127.027 0 230.4-103.373 230.4-230.4s-103.373-230.4-230.4-230.4zM588.8 1024h-512c-42.342 0-76.8-34.458-76.8-76.8 0-3.482 0.717-86.272 62.72-168.96 36.096-48.128 85.504-86.374 146.893-113.613 74.957-33.331 168.090-50.227 276.787-50.227 17.971 0 35.738 0.563 52.787 1.587 14.131 0.87 24.832 13.056 23.962 27.136s-13.056 24.883-27.136 23.962c-16.026-0.973-32.717-1.485-49.613-1.485-178.534 0-310.272 48.794-380.979 141.107-52.992 69.171-54.17 139.878-54.221 140.595 0 14.029 11.469 25.498 25.6 25.498h512c14.131 0 25.6 11.469 25.6 25.6s-11.469 25.6-25.6 25.6zM793.6 1024c-127.027 0-230.4-103.373-230.4-230.4s103.373-230.4 230.4-230.4 230.4 103.373 230.4 230.4-103.373 230.4-230.4 230.4zM793.6 614.4c-98.816 0-179.2 80.384-179.2 179.2s80.384 179.2 179.2 179.2 179.2-80.384 179.2-179.2-80.384-179.2-179.2-179.2zM896 768h-76.8v-76.8c0-14.131-11.469-25.6-25.6-25.6s-25.6 11.469-25.6 25.6v76.8h-76.8c-14.131 0-25.6 11.469-25.6 25.6s11.469 25.6 25.6 25.6h76.8v76.8c0 14.131 11.469 25.6 25.6 25.6s25.6-11.469 25.6-25.6v-76.8h76.8c14.131 0 25.6-11.469 25.6-25.6s-11.469-25.6-25.6-25.6z"></path>
</svg>
