<?xml version="1.0" standalone="no"?>
<!DOCTYPE svg PUBLIC "-//W3C//DTD SVG 1.1//EN" "http://www.w3.org/Graphics/SVG/1.1/DTD/svg11.dtd" >
<svg xmlns="http://www.w3.org/2000/svg">
<metadata></metadata>
<defs>
<font id="theinhardtlight_italic" horiz-adv-x="1208" >
<font-face units-per-em="2048" ascent="1642" descent="-406" />
<missing-glyph horiz-adv-x="409" />
<glyph unicode="&#xfb01;" horiz-adv-x="1017" d="M96 874l21 101h221l47 223q25 113 80 162q62 57 170 57q71 0 135 -22l-25 -111q-65 25 -110 25q-58 0 -87.5 -28.5t-43.5 -96.5l-45 -209h221l-21 -101h-221l-186 -874h-121l186 874h-221zM633 0l207 973h121l-207 -973h-121zM887 1192l41 201h121l-41 -201h-121z" />
<glyph unicode="&#xfb02;" horiz-adv-x="1028" d="M96 874l21 101h221l47 223q25 113 80 162q62 57 170 57q71 0 135 -22l-25 -111q-65 25 -110 25q-58 0 -87.5 -28.5t-43.5 -96.5l-45 -209h221l-21 -101h-221l-186 -874h-121l186 874h-221zM631 0l297 1393h121l-297 -1393h-121z" />
<glyph horiz-adv-x="0" />
<glyph horiz-adv-x="682" />
<glyph unicode=" "  horiz-adv-x="409" />
<glyph unicode="&#x09;" horiz-adv-x="409" />
<glyph unicode="&#xa0;" horiz-adv-x="409" />
<glyph unicode="!" horiz-adv-x="444" d="M20 0l50 233h155l-49 -233h-156zM129 360l59 369l142 664h131l-142 -664l-98 -369h-92z" />
<glyph unicode="&#x22;" horiz-adv-x="616" d="M203 836l49 421l29 136h143l-29 -136l-131 -421h-61zM457 836l49 421l29 136h143l-29 -136l-131 -421h-61z" />
<glyph unicode="#" horiz-adv-x="1396" d="M74 395l10 111h330l80 348h-347l9 113h364l103 426h120l-102 -426h260l103 426h120l-102 -426h342l-8 -113h-361l-80 -348h375l-10 -111h-397l-90 -395h-121l92 395h-262l-90 -395h-121l92 395h-309zM535 506h260l79 348h-262z" />
<glyph unicode="$" horiz-adv-x="1175" d="M49 352l109 70q22 -102 87.5 -183t174.5 -116l119 555l-66 24q-51 18 -83.5 32t-75.5 42t-67.5 60t-42.5 83t-18 115q0 162 125.5 262.5t333.5 100.5q31 0 45 -2l35 157h117l-37 -176q119 -29 202 -97t123 -151l-100 -75q-32 74 -96 132t-152 85l-108 -510l82 -29 q55 -20 94 -38t82.5 -48t70 -63t44.5 -82.5t18 -108.5q0 -98 -38.5 -174.5t-106.5 -124t-156.5 -72t-192.5 -24.5q-10 0 -30 1t-29 1l-41 -193h-119l45 211q-134 36 -223 124t-125 212zM315 1051q0 -44 13 -79.5t32.5 -59t55 -45t67 -35t82.5 -31.5l103 487q-10 2 -29 2 q-146 0 -235 -62t-89 -177zM532 100h41q176 0 268.5 73t92.5 202q0 45 -14.5 81t-35.5 60t-61 47t-72.5 36.5t-88.5 33.5l-15 4z" />
<glyph unicode="%" horiz-adv-x="1935" d="M141 856q0 102 27.5 201.5t77.5 180t127 130t168 49.5q36 0 71 -8t72 -30.5t64.5 -56.5t45 -92t17.5 -132q0 -102 -26.5 -202.5t-75 -184t-124.5 -135.5t-167 -52q-135 0 -206 89t-71 243zM248 866q0 -127 48.5 -186t127.5 -59q83 0 149 71t99.5 174t34.5 213 q0 112 -44 176t-128 64q-70 0 -127 -43t-91 -111t-51.5 -145.5t-17.5 -153.5zM449 0l929 1393h113l-930 -1393h-112zM1176 307q0 102 27.5 201.5t77 180t126.5 130t168 49.5q36 0 71 -8t72 -30.5t64.5 -56.5t45 -92t17.5 -132q0 -102 -26.5 -202.5t-75 -184t-124.5 -135.5 t-167 -52q-135 0 -205.5 88.5t-70.5 243.5zM1282 317q0 -127 48.5 -186t127.5 -59q83 0 149 71t99.5 174t34.5 213q0 112 -44 176t-128 64q-70 0 -127 -43t-91 -111t-51.5 -145.5t-17.5 -153.5z" />
<glyph unicode="&#x26;" horiz-adv-x="1251" d="M51 330q0 70 21.5 129t56.5 103.5t94 85.5t118.5 71.5t145.5 66.5q-42 85 -61.5 153t-19.5 148q0 137 88 233.5t239 96.5q135 0 208 -75t73 -181q0 -131 -90 -231t-289 -189q77 -150 244 -385q80 119 155 312l99 -74q-85 -195 -187 -330q94 -131 209 -264h-156 q-93 115 -135 172q-92 -95 -196 -146t-238 -51q-167 0 -273 98t-106 257zM178 346q0 -118 72.5 -189t198.5 -71q196 0 352 176q-178 249 -275 434q-62 -27 -106.5 -49.5t-93 -55.5t-78.5 -67t-50 -80t-20 -98zM522 1096q0 -109 72 -267q142 63 223.5 144.5t81.5 177.5 q0 79 -50 122.5t-122 43.5q-93 0 -149 -62.5t-56 -158.5z" />
<glyph unicode="'" horiz-adv-x="368" d="M205 836l45 421l29 136h151l-29 -136l-135 -421h-61z" />
<glyph unicode="(" horiz-adv-x="499" d="M59 279q0 595 459 1118l107 -11q-228 -280 -336.5 -549t-108.5 -567q0 -274 92 -598l-100 -8q-113 322 -113 615z" />
<glyph unicode=")" horiz-adv-x="497" d="M-145 -326q227 278 334.5 548t107.5 569q0 274 -92 598l98 8q115 -328 115 -615q0 -595 -459 -1118z" />
<glyph unicode="*" horiz-adv-x="894" d="M190 1176l52 84l264 -160l61 301l97 -21l-68 -299l309 37l6 -92l-307 -29l131 -288l-88 -41l-125 286l-231 -211l-62 74l238 205z" />
<glyph unicode="+" horiz-adv-x="1345" d="M80 551v115h543v548h116v-548h541v-115h-541v-551h-116v551h-543z" />
<glyph unicode="," horiz-adv-x="407" d="M-72 -289l15 72q65 17 91.5 56t43.5 118l10 43h-86l51 233h160l-70 -311q-24 -100 -71 -147t-144 -64z" />
<glyph unicode="-" horiz-adv-x="839" d="M115 481l26 129h568l-27 -129h-567z" />
<glyph unicode="." horiz-adv-x="407" d="M2 0l51 233h160l-51 -233h-160z" />
<glyph unicode="/" horiz-adv-x="729" d="M-39 0l735 1391h127l-733 -1391h-129z" />
<glyph unicode="0" d="M100 504q0 133 26.5 263t80 247t128 206.5t178 142.5t222.5 54q57 0 111.5 -13.5t112.5 -50t101 -92.5t71 -149t28 -211q0 -132 -25.5 -263t-79 -250.5t-127 -211.5t-177 -146.5t-222.5 -54.5q-211 0 -319.5 141.5t-108.5 387.5zM225 516q1 -115 25.5 -200t69 -133.5 t99 -71.5t120.5 -23q111 0 205.5 71.5t156 186t96 254t35.5 279.5q0 195 -78.5 310.5t-228.5 115.5q-82 0 -154.5 -35t-126 -95.5t-96 -138.5t-69 -167t-40 -178.5t-14.5 -174.5z" />
<glyph unicode="1" d="M379 989l22 107h33q158 0 250 59q116 72 158 238h112l-297 -1393h-127l228 1057q-119 -70 -309 -70q-45 0 -70 2z" />
<glyph unicode="2" d="M35 0l18 106q289 166 563 371q57 43 94.5 73.5t87 75t81.5 85.5t61.5 90.5t44 104.5t14.5 114q0 131 -81 208t-224 77q-86 0 -152.5 -28t-106.5 -77t-60.5 -110.5t-20.5 -133.5q0 -64 19 -135l-133 31q-13 60 -13 113q0 191 129.5 321.5t345.5 130.5q198 0 315.5 -108.5 t117.5 -278.5q0 -68 -17 -132t-42 -115.5t-68.5 -106t-82 -93.5t-99 -87t-102.5 -78.5t-107 -76.5q-4 -3 -7 -5l-6 -4q-175 -123 -368 -226v-2q132 9 284 9h471l-22 -113h-934z" />
<glyph unicode="3" d="M74 362l123 44q11 -144 98 -231t246 -87q74 0 137.5 18.5t115 55t81.5 98t30 141.5q0 185 -182 252q-90 33 -240 33h-112l22 105h150q189 0 278 45q146 71 146 233q0 104 -78.5 170t-210.5 66q-79 0 -142.5 -25t-103 -67t-62.5 -92.5t-28 -106.5l-115 37q4 63 35.5 126 t86 117.5t142.5 88.5t193 34q103 0 184.5 -28.5t131 -77t75 -108t25.5 -124.5q0 -131 -90 -230t-248 -116v-2q129 -28 201.5 -122t72.5 -214q0 -79 -31.5 -152.5t-90.5 -134t-155 -97t-214 -36.5q-216 0 -334.5 102.5t-136.5 284.5z" />
<glyph unicode="4" d="M33 373l18 86l881 942h112l-196 -918h254l-23 -110h-256l-80 -373h-122l81 373h-669zM217 483h510l96 461q14 65 42 175.5t28 111.5h-2q-84 -118 -232 -279z" />
<glyph unicode="5" d="M98 311l119 51q21 -121 109.5 -199.5t222.5 -78.5q74 0 142 27.5t121.5 80t85.5 136t32 186.5q0 156 -86 236.5t-215 80.5q-116 0 -212 -67.5t-130 -194.5l-121 39l196 785h756l-26 -113h-641l-74 -287l-58 -209l5 -2q51 77 142.5 119.5t192.5 42.5q81 0 153 -27 t128.5 -78t89.5 -133t33 -184q0 -104 -28.5 -194t-78 -154t-115 -109.5t-139 -67.5t-151.5 -22q-169 0 -291.5 86.5t-161.5 249.5z" />
<glyph unicode="6" d="M135 487q0 189 43.5 357.5t123 296t199 202t263.5 74.5q157 0 263.5 -86.5t139.5 -230.5l-108 -70q-16 112 -95.5 192.5t-205.5 80.5q-114 0 -217.5 -73t-169.5 -216q-49 -100 -86 -256h2q137 168 370 168q103 0 185 -35t132.5 -95t76.5 -135.5t26 -160.5 q0 -77 -20.5 -152t-63.5 -142.5t-102 -119t-142 -81.5t-178 -30q-200 0 -318 132.5t-118 379.5zM258 504q0 -192 83.5 -303t240.5 -111q85 0 156 35t116 92.5t69.5 128.5t24.5 146q0 136 -83 229.5t-238 93.5q-116 0 -214 -60t-151 -153q-4 -66 -4 -98z" />
<glyph unicode="7" d="M238 967l90 426h934l-23 -99q-570 -637 -758 -1294h-135q146 523 594 1096q97 121 154 184v2q-45 -2 -224 -2h-446l-66 -313h-120z" />
<glyph unicode="8" d="M74 352q0 153 96.5 264.5t278.5 145.5q-96 32 -150.5 104t-54.5 185q0 71 32 137t89.5 117t144 81.5t188.5 30.5q199 0 314.5 -88.5t115.5 -238.5q0 -140 -83.5 -233t-235.5 -122q248 -83 248 -340q0 -186 -135.5 -303t-378.5 -117q-225 0 -347 102t-122 275zM203 375 q0 -131 91.5 -209t250.5 -78q176 0 278.5 82.5t102.5 230.5q0 133 -93 211t-253 78q-93 0 -167 -26t-119 -71t-68 -100.5t-23 -117.5zM371 1049q0 -109 74.5 -177.5t222.5 -68.5q158 0 242.5 75t84.5 199q0 103 -80.5 167.5t-216.5 64.5q-155 -1 -241 -76.5t-86 -183.5z" />
<glyph unicode="9" d="M90 293l109 69q16 -112 95.5 -191t205.5 -79q115 0 218 72t169 215q49 100 86 256h-2q-62 -77 -156.5 -122.5t-214.5 -45.5q-103 0 -185 35t-132.5 95t-76.5 135.5t-26 160.5q0 97 33.5 189.5t95.5 167.5t160.5 121t216.5 46q200 0 318 -132.5t118 -379.5 q0 -189 -43.5 -357.5t-122.5 -296t-198.5 -202t-263.5 -74.5q-157 0 -264 87t-140 231zM309 903q0 -64 20 -121.5t58.5 -103t101.5 -72t142 -26.5q116 0 213.5 60t150.5 153q4 66 4 98q0 192 -83 303t-240 111q-113 0 -198.5 -60t-127 -150.5t-41.5 -191.5z" />
<glyph unicode=":" horiz-adv-x="442" d="M18 0l50 233h159l-49 -233h-160zM176 741l49 234h160l-49 -234h-160z" />
<glyph unicode=";" horiz-adv-x="450" d="M-55 -289l14 72q65 17 91.5 56t43.5 118l10 43h-86l52 233h159l-69 -311q-24 -100 -71 -147t-144 -64zM178 741l49 234h160l-49 -234h-160z" />
<glyph unicode="&#x3c;" horiz-adv-x="1667" d="M100 621v135l1387 649v-129l-1256 -586l1256 -594v-129z" />
<glyph unicode="=" horiz-adv-x="1775" d="M193 358v115h1378v-115h-1378zM193 715v116h1378v-116h-1378z" />
<glyph unicode="&#x3e;" horiz-adv-x="1665" d="M225 -33v129l1256 594l-1256 586v129l1387 -649v-135z" />
<glyph unicode="?" horiz-adv-x="952" d="M166 1006q0 168 123.5 285.5t318.5 117.5q176 0 274.5 -95.5t98.5 -238.5q0 -129 -74 -235q-44 -63 -125 -125l-180 -137q-79 -60 -102.5 -99.5t-38.5 -113.5q-2 -9 -5 -30t-5 -30h-123q23 141 60.5 209.5t148.5 149.5l157 116q51 40 76 68q88 101 88 217 q0 100 -69.5 170t-198.5 70q-144 0 -225.5 -94.5t-81.5 -229.5q0 -71 26 -147l-127 45q-16 69 -16 127zM254 0l45 209h152l-45 -209h-152z" />
<glyph unicode="@" horiz-adv-x="1636" d="M59 338q0 129 36.5 259t110.5 248t176 209t243 145t301 54q125 0 228.5 -34t173.5 -91t118 -134.5t70 -163t22 -177.5q0 -153 -57 -293.5t-162.5 -230.5t-231.5 -90q-139 0 -139 96q0 17 2 27l-2 2q-78 -133 -272 -133q-113 0 -182.5 60t-69.5 167q0 67 23.5 115t72.5 80 t108.5 51.5t145.5 34.5l197 34q35 6 48.5 18.5t18.5 39.5q11 46 11 67q0 136 -191 136q-114 0 -175.5 -53t-72.5 -142l-96 23q8 69 41.5 120.5t83.5 81t108 44t123 14.5q126 0 201.5 -49.5t75.5 -161.5q0 -49 -12 -99l-82 -381q-6 -37 -6 -53q0 -25 12 -37t41 -12 q91 0 168.5 75.5t120.5 193t43 243.5q0 100 -29.5 189.5t-89 164.5t-162 119.5t-236.5 44.5q-138 0 -259 -47.5t-208 -128t-150.5 -185t-94.5 -220t-31 -230.5q0 -118 35.5 -222.5t104 -188t182 -132.5t258.5 -49q169 0 332 73t278 204l20 -103q-119 -130 -287 -200 t-345 -70q-138 0 -252.5 36.5t-194.5 99.5t-136 149.5t-82 185.5t-26 207zM528 268q0 -75 47.5 -111t126.5 -36q97 0 172.5 53t98.5 160l37 172q-22 -14 -140 -35l-88 -16q-57 -10 -96 -21.5t-78.5 -32t-59.5 -54t-20 -79.5z" />
<glyph unicode="A" horiz-adv-x="1226" d="M-100 0l825 1393h131l236 -1393h-134l-67 420h-604l-246 -420h-141zM350 532h522l-81 523q-19 121 -29 194h-2q-77 -146 -92 -172z" />
<glyph unicode="B" horiz-adv-x="1345" d="M47 0l297 1393h518q194 0 291 -54q67 -37 102 -105.5t35 -148.5q0 -137 -75 -239t-218 -123q106 -24 163 -101.5t57 -187.5q0 -112 -60.5 -219t-159.5 -158q-59 -29 -135.5 -43t-202.5 -14h-612zM201 115h471q200 0 286 59q129 87 129 266q0 79 -37 130.5t-100 74.5 q-60 21 -200 21h-433zM342 776h442q183 0 263 55q116 79 116 248q0 99 -69 152q-28 22 -74 33t-78 12.5t-88 1.5h-405z" />
<glyph unicode="C" horiz-adv-x="1284" d="M115 553q0 131 30 256.5t89.5 235t142 193t194.5 131.5t240 48q182 0 306 -90t171 -258l-117 -74q-32 147 -125 227.5t-247 80.5q-108 0 -200.5 -45.5t-156 -120.5t-109 -172t-66.5 -200t-21 -204q0 -219 98.5 -345t292.5 -126q148 0 262 84t188 225l99 -73 q-92 -163 -234 -257t-334 -94q-247 0 -375 150t-128 428z" />
<glyph unicode="D" horiz-adv-x="1386" d="M47 0l297 1393h309q125 0 224.5 -15.5t185 -52t142 -94.5t88.5 -147t32 -205q0 -239 -96.5 -457t-272.5 -322q-109 -63 -210 -81.5t-273 -18.5h-426zM201 113h282q140 0 238 19.5t180 74.5q75 50 133.5 133.5t92 177.5t50.5 186.5t17 174.5q0 216 -154 321 q-55 37 -131.5 55.5t-134.5 21.5t-160 3h-165z" />
<glyph unicode="E" horiz-adv-x="1191" d="M47 0l297 1393h913l-24 -113h-784l-109 -506h711l-23 -112h-711l-118 -549h827l-25 -113h-954z" />
<glyph unicode="F" horiz-adv-x="1110" d="M47 0l297 1393h887l-25 -113h-757l-109 -506h690l-24 -115h-689l-141 -659h-129z" />
<glyph unicode="G" horiz-adv-x="1355" d="M115 553q0 131 30 256.5t89.5 235t142 193t194.5 131.5t240 48q182 0 306 -90t171 -258l-117 -74q-32 147 -125 227.5t-247 80.5q-108 0 -200.5 -45.5t-156 -120.5t-109 -172t-66.5 -200t-21 -204q0 -219 98.5 -345t292.5 -126q210 0 344 143q110 119 160 345l2 12h-498 l25 115h608l-150 -705h-118l45 199l-2 2q-27 -41 -63 -77t-89 -71.5t-127.5 -56.5t-159.5 -21q-243 0 -371 150.5t-128 427.5z" />
<glyph unicode="H" horiz-adv-x="1419" d="M47 0l297 1393h129l-131 -617h821l131 617h127l-295 -1393h-129l142 659h-822l-141 -659h-129z" />
<glyph unicode="I" horiz-adv-x="471" d="M47 0l297 1393h129l-297 -1393h-129z" />
<glyph unicode="J" horiz-adv-x="995" d="M-23 299q0 19 5 70l133 51q-11 -64 -11 -96q0 -112 61.5 -179t186.5 -67q183 0 260 168q37 74 62 205l203 942h127l-197 -930q-45 -208 -98 -305q-53 -92 -139 -140.5t-224 -48.5q-179 0 -274 84t-95 246z" />
<glyph unicode="K" horiz-adv-x="1280" d="M49 0l295 1393h135l-170 -787l924 787h188l-669 -562l399 -831h-150l-354 750l-373 -318l-92 -432h-133z" />
<glyph unicode="L" horiz-adv-x="1079" d="M47 0l297 1393h127l-272 -1280h766l-25 -113h-893z" />
<glyph unicode="M" horiz-adv-x="1630" d="M47 0l297 1393h137l213 -996q25 -115 41 -213h2q35 71 127 224l606 985h162l-297 -1393h-127l181 852q47 210 96 371h-2q-95 -180 -172 -305l-566 -918h-90l-196 901q-33 151 -47 309h-2q-16 -164 -52 -340l-184 -870h-127z" />
<glyph unicode="N" horiz-adv-x="1447" d="M47 0l297 1393h141l504 -1047q39 -81 76 -170h2q8 49 35 184l219 1033h129l-297 -1393h-141l-500 1047q-58 120 -78 186h-2q-8 -62 -35 -199l-221 -1034h-129z" />
<glyph unicode="O" horiz-adv-x="1390" d="M113 553q0 131 30 256.5t90.5 235.5t144 193t198 131t245.5 48q232 0 369 -146t137 -407q0 -132 -27.5 -258.5t-85.5 -241t-140.5 -201t-200.5 -137.5t-257 -51q-246 0 -374.5 152t-128.5 426zM246 561q0 -220 97.5 -345.5t291.5 -125.5q108 0 201 47t157.5 124.5 t110.5 176.5t68 202.5t22 203.5q0 214 -100 336.5t-291 122.5q-106 0 -198 -45.5t-156.5 -120.5t-111 -172t-69 -200t-22.5 -204z" />
<glyph unicode="P" horiz-adv-x="1247" d="M47 0l297 1393h485q115 0 185 -14t125 -44q147 -82 147 -262q0 -134 -56 -238t-159 -161q-59 -31 -135.5 -45.5t-204.5 -14.5h-426l-131 -614h-127zM330 729h413q114 0 179 13.5t110 45.5q129 87 129 275q0 145 -139 194q-68 23 -201 23h-375z" />
<glyph unicode="Q" horiz-adv-x="1406" d="M113 553q0 131 30 256.5t90.5 235.5t144 193t198 131t245.5 48q232 0 369 -146t137 -407q0 -185 -55.5 -359.5t-161.5 -301.5l129 -166l-104 -80l-119 156q-167 -138 -400 -138q-246 0 -374.5 152t-128.5 426zM246 561q0 -220 97.5 -345.5t291.5 -125.5q108 0 201 47 t157.5 124.5t110.5 176.5t68 202.5t22 203.5q0 214 -100 336.5t-291 122.5q-106 0 -198 -45.5t-156.5 -120.5t-111 -172t-69 -200t-22.5 -204z" />
<glyph unicode="R" horiz-adv-x="1306" d="M47 0l297 1393h485q115 0 185 -14t125 -44q147 -82 147 -262q0 -134 -56 -238t-159 -161q-76 -42 -197 -53l244 -621h-139l-234 614h-440l-131 -614h-127zM330 729h413q114 0 179 13.5t110 45.5q129 87 129 275q0 145 -139 194q-68 23 -201 23h-375z" />
<glyph unicode="S" horiz-adv-x="1193" d="M43 342l113 72q14 -64 45.5 -120.5t82.5 -103.5t128.5 -74.5t171.5 -27.5q176 0 273 73.5t97 203.5q0 39 -9 71t-29.5 57t-41.5 43.5t-58 36.5t-65.5 29.5t-76.5 28.5l-195 71q-53 19 -86 33.5t-77.5 43.5t-69.5 61.5t-43.5 85.5t-18.5 118q0 167 129.5 270t343.5 103 q94 0 175.5 -21.5t141 -59.5t102 -82t71.5 -95l-103 -78q-49 100 -149.5 161t-243.5 61q-148 0 -241 -62.5t-93 -179.5q0 -46 13.5 -82t33.5 -60.5t56.5 -47t69.5 -36t85 -32.5l195 -72q57 -20 97.5 -38.5t85.5 -48.5t72.5 -64.5t46 -85t18.5 -111.5q0 -101 -39.5 -180 t-109.5 -128t-161 -74.5t-198 -25.5q-211 0 -350.5 100t-188.5 267z" />
<glyph unicode="T" horiz-adv-x="1077" d="M176 1280l25 113h1024l-25 -113h-448l-273 -1280h-127l273 1280h-449z" />
<glyph unicode="U" horiz-adv-x="1370" d="M129 377q0 57 25 186l178 830h127l-174 -822q-27 -131 -27 -184q0 -149 89 -224t263 -75q196 0 305 100q53 50 89 124t63 194l188 887h127l-184 -871q-65 -299 -192 -418q-137 -131 -410 -131q-229 0 -348 106.5t-119 297.5z" />
<glyph unicode="V" horiz-adv-x="1185" d="M195 1393h133l139 -1069q5 -35 11.5 -90t10.5 -84h3q47 95 92 172l608 1071h141l-796 -1393h-158z" />
<glyph unicode="W" horiz-adv-x="1810" d="M207 1393h127l69 -826q25 -312 25 -342h2q32 85 164 342l414 826h120l76 -826q25 -313 25 -344h2q21 55 162 340l409 830h135l-696 -1393h-119l-71 831q-25 288 -25 349h-2q-15 -39 -71 -156.5t-97 -196.5l-420 -827h-117z" />
<glyph unicode="X" d="M-127 0l694 748l-327 645h141l281 -564l514 564h157l-618 -660l375 -733h-144l-321 639l-590 -639h-162z" />
<glyph unicode="Y" horiz-adv-x="1163" d="M176 1393h137l283 -693l580 693h155l-696 -820l-123 -573h-129l123 573z" />
<glyph unicode="Z" horiz-adv-x="1142" d="M-80 0l19 84l1099 1196h-800l24 113h983l-20 -93l-1090 -1187h856l-24 -113h-1047z" />
<glyph unicode="[" horiz-adv-x="552" d="M-39 -324l365 1717h344l-21 -99h-223l-324 -1519h224l-23 -99h-342z" />
<glyph unicode="\" horiz-adv-x="788" d="M229 1393h121l256 -1393h-121z" />
<glyph unicode="]" horiz-adv-x="552" d="M-135 -324l20 99h224l323 1519h-223l22 99h342l-364 -1717h-344z" />
<glyph unicode="^" horiz-adv-x="940" d="M86 700l524 734h111l197 -734h-130l-147 592h-2l-410 -592h-143z" />
<glyph unicode="_" horiz-adv-x="1497" d="M25 -303l20 115h1077l-22 -115h-1075z" />
<glyph unicode="`" horiz-adv-x="960" d="M414 1393h192l193 -263h-115z" />
<glyph unicode="a" horiz-adv-x="985" d="M25 236q0 76 27.5 132t83 93t124 59.5t166.5 38.5l227 39q40 7 56 21.5t22 44.5q10 48 10 77q0 156 -219 156q-130 0 -200.5 -61t-81.5 -162l-111 26q9 78 47 137.5t95.5 93t124.5 50t141 16.5q319 0 319 -241q0 -48 -14 -113l-94 -442q-9 -43 -9 -62q0 -57 62 -57 q46 0 78 20l-21 -96q-36 -20 -100 -20q-62 0 -97.5 26t-35.5 78q0 21 6 45l-2 2q-42 -74 -123 -118t-193 -44q-129 0 -208.5 69t-79.5 192zM145 248q0 -88 54 -129t145 -41q112 0 197.5 61t113.5 185l43 196q-24 -14 -159 -39l-103 -18q-52 -9 -89.5 -18.5t-78 -26.5 t-65.5 -38.5t-41.5 -55t-16.5 -76.5z" />
<glyph unicode="b" horiz-adv-x="1085" d="M16 0l299 1393h119l-76 -351l-49 -227h2q44 80 131.5 131t192.5 51q162 0 257 -103.5t95 -287.5q0 -166 -59.5 -308.5t-176.5 -232.5t-268 -90q-132 0 -207.5 67t-95.5 163l-43 -205h-121zM227 383q0 -141 65 -222t195 -81q87 0 160.5 47t119.5 121t71.5 161.5 t25.5 172.5q0 145 -66 228t-198 83q-61 0 -115.5 -22.5t-94.5 -61.5t-71.5 -89.5t-51.5 -108t-30 -115.5t-10 -113z" />
<glyph unicode="c" horiz-adv-x="985" d="M61 379q0 119 34.5 229t97.5 197t161 139.5t215 52.5q141 0 236.5 -74.5t126.5 -203.5l-109 -57q-9 37 -21 67t-33.5 61.5t-49 53.5t-69.5 35.5t-93 13.5q-88 0 -161.5 -46.5t-118 -120t-69 -160t-24.5 -171.5q0 -146 66.5 -229.5t195.5 -83.5q208 0 322 227l94 -63 q-144 -271 -424 -271q-184 0 -280.5 107.5t-96.5 296.5z" />
<glyph unicode="d" horiz-adv-x="1087" d="M59 367q0 98 22 191t65.5 172.5t103.5 139t140.5 93.5t172.5 34q132 0 207.5 -66.5t95.5 -162.5l133 625h121l-297 -1393h-121l37 160h-2q-44 -81 -132.5 -133t-192.5 -52q-162 0 -257.5 104t-95.5 288zM182 391q0 -145 66 -228t198 -83q61 0 115.5 22.5t94.5 61.5 t71.5 89.5t51.5 108t30 115.5t10 113q0 141 -65 222t-195 81q-87 0 -160.5 -47t-119.5 -121t-71.5 -161.5t-25.5 -172.5z" />
<glyph unicode="e" horiz-adv-x="1026" d="M61 397q0 159 64.5 295.5t183.5 220.5t266 84q92 0 161.5 -30t111 -82.5t62 -119t20.5 -144.5q0 -69 -17 -142h-723q-6 -43 -6 -88q0 -64 14.5 -117.5t45.5 -97.5t86 -69t129 -25q57 0 108 16t85 38t65.5 55.5t48.5 58.5t35 57l92 -63q-151 -269 -444 -269 q-190 0 -289 107.5t-99 314.5zM213 578h588q4 36 4 59q0 52 -12.5 96t-39.5 81.5t-75.5 59t-114.5 21.5q-67 0 -127 -28t-103.5 -74.5t-74 -101.5t-45.5 -113z" />
<glyph unicode="f" horiz-adv-x="630" d="M96 874l21 101h221l47 223q25 113 80 162q62 57 170 57q71 0 135 -22l-25 -111q-65 25 -110 25q-58 0 -87.5 -28.5t-43.5 -96.5l-45 -209h221l-21 -101h-221l-186 -874h-121l186 874h-221z" />
<glyph unicode="g" horiz-adv-x="1089" d="M-8 -113q0 27 2 41l119 37q-2 -16 -2 -45q0 -223 258 -223q43 0 79.5 6.5t64.5 16.5t52.5 29.5t42 37t33.5 47t26 52t21.5 60t18 62.5t16.5 68l22 98h-2q-44 -80 -133 -132t-194 -52q-161 0 -257 105.5t-96 289.5q0 121 35.5 232t99 195.5t157.5 134.5t204 50 q133 0 212.5 -67.5t96.5 -161.5l43 207h121l-188 -899q-27 -130 -60 -214.5t-82 -140.5q-112 -127 -342 -127q-98 0 -172 25.5t-115.5 68.5t-61 93t-19.5 106zM186 410q0 -145 66.5 -230.5t198.5 -85.5q73 0 135.5 31t105 81t72.5 115.5t43.5 133.5t13.5 135q0 141 -65 222 t-195 81q-87 0 -160 -44t-119 -114.5t-71 -155t-25 -169.5z" />
<glyph unicode="h" horiz-adv-x="1026" d="M18 0l295 1393h119l-121 -580q38 75 133.5 129.5t200.5 54.5q129 0 199.5 -70t70.5 -190q0 -69 -22 -168l-121 -569h-121l111 522q29 132 29 197q0 85 -46 125.5t-143 40.5q-68 0 -129 -30.5t-104.5 -80t-72.5 -108.5t-42 -121l-115 -545h-121z" />
<glyph unicode="i" horiz-adv-x="403" d="M18 0l207 975h121l-207 -975h-121zM272 1192l41 201h121l-41 -201h-121z" />
<glyph unicode="j" horiz-adv-x="401" d="M-309 -373l26 117q60 -47 136 -47q28 0 48 8t33.5 21t25 41t18.5 56t18 79l229 1073h121l-213 -993q-38 -180 -57 -238.5t-58 -99.5q-58 -58 -168 -58q-89 0 -159 41zM272 1192l43 201h121l-43 -201h-121z" />
<glyph unicode="k" horiz-adv-x="999" d="M18 0l295 1393h123l-194 -910l614 492h184l-469 -363l289 -612h-139l-248 535l-264 -205l-70 -330h-121z" />
<glyph unicode="l" horiz-adv-x="425" d="M29 0l297 1393h120l-296 -1393h-121z" />
<glyph unicode="m" horiz-adv-x="1585" d="M18 0l207 975h121l-35 -162q36 73 130 128.5t190 55.5q108 0 168.5 -53t74.5 -149q46 79 143.5 140.5t209.5 61.5q117 0 182.5 -65.5t65.5 -183.5q0 -75 -23 -179l-121 -569h-121l111 522q29 139 29 197q0 79 -40.5 122.5t-121.5 43.5q-113 0 -202.5 -87.5t-125.5 -213.5 l-125 -584h-121l111 522q29 139 29 197q0 166 -162 166q-120 0 -214 -100t-122 -234l-117 -551h-121z" />
<glyph unicode="n" horiz-adv-x="1026" d="M18 0l207 975h121l-35 -162q38 75 133.5 129.5t200.5 54.5q129 0 199.5 -70t70.5 -190q0 -69 -22 -168l-121 -569h-121l111 522q29 132 29 197q0 85 -46 125.5t-143 40.5q-68 0 -129 -30.5t-104.5 -80t-72.5 -108.5t-42 -121l-115 -545h-121z" />
<glyph unicode="o" horiz-adv-x="1058" d="M59 379q0 92 21.5 181t65 168t105 139t147 95t184.5 35q176 0 276 -108.5t100 -296.5q0 -92 -20.5 -180t-64 -167.5t-104 -139t-146.5 -95t-187 -35.5q-177 0 -277 108t-100 296zM184 393q0 -148 70.5 -230.5t194.5 -82.5q92 0 167.5 46.5t121.5 121t71 162.5t25 176 q0 147 -71 228t-196 81q-91 0 -165.5 -45.5t-121 -118.5t-71.5 -161t-25 -177z" />
<glyph unicode="p" horiz-adv-x="1087" d="M-63 -389l288 1364h121l-37 -162h2q44 80 132.5 132t193.5 52q162 0 257 -103.5t95 -287.5q0 -166 -59.5 -308.5t-176.5 -232.5t-268 -90q-132 0 -207.5 67t-95.5 163l-125 -594h-120zM231 383q0 -142 64.5 -222.5t193.5 -80.5q87 0 160.5 47t119.5 121t71.5 161.5 t25.5 172.5q0 145 -66 228t-198 83q-72 0 -134 -32t-105 -85t-73.5 -120t-44.5 -136.5t-14 -136.5z" />
<glyph unicode="q" horiz-adv-x="1087" d="M59 367q0 98 22 191t65.5 172.5t103.5 139t140.5 93.5t172.5 34q132 0 207.5 -66.5t95.5 -162.5l43 207h121l-291 -1364h-121l121 549h-2q-44 -81 -132.5 -133t-192.5 -52q-162 0 -257.5 104t-95.5 288zM182 391q0 -145 66 -228t198 -83q61 0 115.5 22.5t94.5 61.5 t71.5 89.5t51.5 108t30 115.5t10 113q0 141 -65 222t-195 81q-87 0 -160.5 -47t-119.5 -121t-71.5 -161.5t-25.5 -172.5z" />
<glyph unicode="r" horiz-adv-x="663" d="M18 0l207 975h121l-41 -189q43 85 133.5 148t196.5 63q41 0 72 -8l-27 -123q-33 8 -74 8q-130 0 -226 -95.5t-124 -227.5l-117 -551h-121z" />
<glyph unicode="s" horiz-adv-x="905" d="M4 250l105 65q77 -237 309 -237q98 0 161.5 46.5t63.5 133.5q0 67 -39 99t-137 67l-137 51q-35 13 -56.5 22.5t-54.5 30.5t-52 44.5t-33.5 61t-14.5 83.5q0 130 100 205t242 75q256 0 358 -200l-98 -70q-81 168 -266 168q-92 0 -150.5 -41.5t-58.5 -118.5q0 -65 37 -96.5 t125 -63.5l133 -49q53 -19 88 -36.5t71.5 -46.5t55 -71t18.5 -96q0 -143 -102.5 -222t-261.5 -79q-155 0 -260 73.5t-146 201.5z" />
<glyph unicode="t" horiz-adv-x="620" d="M82 874l20 101h197l82 366l125 25l-86 -391h233l-20 -101h-234l-137 -636q-12 -56 -12 -82q0 -35 16.5 -50.5t52.5 -15.5q75 0 158 45l-24 -119q-77 -36 -183 -36q-149 0 -149 122q0 34 12 95l146 677h-197z" />
<glyph unicode="u" horiz-adv-x="1015" d="M72 229q0 75 22 174l121 572h121l-111 -524q-28 -128 -28 -199q0 -83 43 -123.5t137 -40.5q68 0 129 30.5t103.5 80t71.5 108.5t42 121l115 547h120l-206 -975h-121l35 160q-39 -76 -131.5 -130.5t-200.5 -54.5q-123 0 -192.5 68.5t-69.5 185.5z" />
<glyph unicode="v" horiz-adv-x="892" d="M119 975h127l86 -639q4 -32 9.5 -69.5t8.5 -60t4 -32.5h2q27 55 101 176l370 625h129l-587 -975h-107z" />
<glyph unicode="w" horiz-adv-x="1409" d="M115 975h121l67 -586q14 -109 23 -215h2q7 13 26.5 55t40 84t39.5 78l301 584h105l57 -590q5 -47 11 -127t7 -86h3q28 63 110 223l303 580h123l-518 -975h-115l-55 627q-3 48 -6 109.5t-4 68.5h-2q-4 -11 -17 -36t-35.5 -69.5t-37.5 -74.5l-320 -625h-108z" />
<glyph unicode="x" horiz-adv-x="911" d="M-104 0l481 512l-234 463h138l182 -381l352 381h141l-446 -481l252 -494h-137l-201 414l-381 -414h-147z" />
<glyph unicode="y" horiz-adv-x="911" d="M-135 -377l22 115q53 -43 113 -43q59 0 96 43q29 32 78 115l88 151l-141 971h125l90 -649l24 -170h2q22 42 103 176l383 643h129l-670 -1106q-82 -139 -121 -186q-41 -51 -86 -74t-110 -23q-70 0 -125 37z" />
<glyph unicode="z" horiz-adv-x="829" d="M-61 0l16 82l694 792h-499l20 101h657l-16 -80l-696 -793h557l-23 -102h-710z" />
<glyph unicode="{" horiz-adv-x="552" d="M49 -178q0 46 35 198l51 228q27 114 27 174q0 49 -23 79t-80 48l21 82q30 3 52.5 9.5t39.5 15t30.5 26.5t22.5 34t18 48.5t15 59.5t16 77l50 250q20 103 52.5 156.5t78 71.5t123.5 18q53 0 84 -4l-19 -88h-53q-74 0 -101 -38.5t-53 -164.5l-47 -234q-15 -72 -28 -113.5 t-37 -80t-61 -59.5t-95 -35q59 -29 85 -72t26 -107q0 -43 -13 -110l-69 -330q-19 -89 -19 -113q0 -45 29.5 -64.5t103.5 -19.5h13l-19 -88q-9 0 -26 -1t-25 -1q-112 0 -158.5 35t-46.5 113z" />
<glyph unicode="|" horiz-adv-x="528" d="M195 -324v1717h120v-1717h-120z" />
<glyph unicode="}" horiz-adv-x="550" d="M-127 -326l18 88h54q74 0 100.5 38.5t52.5 164.5l56 275q15 72 28 113.5t37 80t61 59.5t95 35q-59 29 -85 72t-26 107q0 48 12 110l62 291q18 85 18 113q0 45 -29.5 64.5t-103.5 19.5h-12l18 88q29 2 52 2q112 0 158 -35t46 -113q0 -51 -34 -198l-43 -189 q-27 -114 -27 -174q0 -49 22.5 -79t79.5 -48l-20 -82q-35 -4 -59.5 -10.5t-44 -22.5t-31.5 -32.5t-23.5 -51t-18.5 -65t-18 -88.5l-57 -291q-20 -103 -52.5 -156.5t-78 -71.5t-123.5 -18q-53 0 -84 4z" />
<glyph unicode="~" horiz-adv-x="1105" d="M86 563q107 166 250 166q76 0 201 -57l96 -45q56 -26 82 -34.5t53 -8.5q42 0 84 23.5t63.5 46t51.5 59.5l59 -101q-127 -157 -258 -157q-46 0 -88 13t-113 48l-84 41q-89 39 -147 39q-54 0 -87.5 -25t-98.5 -104z" />
<glyph unicode="&#xa1;" horiz-adv-x="409" d="M-74 -418l142 664l98 368h92l-59 -368l-142 -664h-131zM162 741l49 234h156l-50 -234h-155z" />
<glyph unicode="&#xa2;" horiz-adv-x="1003" d="M70 379q0 115 33 223t93 194.5t153.5 140.5t205.5 58l41 193h106l-43 -199q108 -20 181.5 -91t99.5 -179l-109 -57q-46 188 -194 223l-170 -803q197 7 309 227l94 -63q-144 -271 -424 -271h-2l-43 -206h-106l45 217q-133 29 -201.5 131.5t-68.5 261.5zM193 395 q0 -247 172 -301l167 797q-81 -8 -147.5 -57t-107 -121t-62.5 -154.5t-22 -163.5z" />
<glyph unicode="&#xa3;" horiz-adv-x="1103" d="M-35 0l21 100q89 5 143 35.5t92.5 105.5t67.5 212q8 37 28 190h-219l25 109h211q3 19 17 105t22 122.5t25.5 102t41.5 111.5t56 83q112 135 305 135q150 0 235.5 -81.5t85.5 -209.5v-22l-112 -39v14q0 119 -60 177.5t-159 58.5q-73 0 -128.5 -33.5t-86 -70t-56 -120.5 t-32.5 -122.5t-22 -138.5q-2 -11 -3 -17l-8 -55h315l-25 -109h-305l-6 -39q-9 -55 -12 -75t-13 -70.5t-17.5 -74t-21 -65.5t-28.5 -66t-36 -54t-47.5 -51t-57.5 -37v-2q106 4 256 4h471l-23 -113h-940z" />
<glyph unicode="&#xa4;" horiz-adv-x="1161" d="M133 231l127 127q-72 97 -72 234q0 131 74 235l-129 129l86 86l127 -129q104 74 236 74q134 0 233 -74l127 127l86 -86l-127 -127q76 -107 76 -235q0 -132 -74 -236l125 -123l-86 -86l-125 125q-103 -73 -235 -73q-138 0 -236 73l-127 -127zM305 592q0 -118 79.5 -199.5 t197.5 -81.5q119 0 198.5 81.5t79.5 199.5q0 120 -79 201t-199 81q-118 0 -197.5 -81t-79.5 -201z" />
<glyph unicode="&#xa5;" horiz-adv-x="1280" d="M117 305l22 109h385l37 170h-391l23 108h323l-287 701h138l284 -682l578 682h155l-602 -701h342l-22 -108h-412l-37 -170h418l-22 -109h-418l-66 -305h-129l66 305h-385z" />
<glyph unicode="&#xa6;" horiz-adv-x="552" d="M207 -324v662h121v-662h-121zM207 731v662h121v-662h-121z" />
<glyph unicode="&#xa7;" horiz-adv-x="1003" d="M-2 92l104 66q77 -238 310 -238q98 0 161.5 46.5t63.5 133.5q0 68 -47 116t-141 93l-93 45q-52 25 -85 44t-68 46t-54 55t-31 67.5t-12 88.5q0 65 29.5 119.5t76.5 88.5t100 54t106 25q-56 38 -84.5 84.5t-28.5 114.5q0 110 93 191t249 81q125 0 220.5 -54t146.5 -165 l-101 -66q-76 183 -272 183q-92 0 -150.5 -41.5t-58.5 -118.5q0 -65 43 -106.5t137 -88.5l58 -24q39 -20 57.5 -30t50.5 -29.5t48 -33.5t37.5 -36t31.5 -43.5t17.5 -50.5t7.5 -62q0 -70 -27.5 -127t-72.5 -93.5t-89.5 -58.5t-91.5 -34q129 -70 129 -215q0 -143 -103 -222 t-262 -79q-153 0 -259 73.5t-146 200.5zM236 668q0 -76 47 -121.5t137 -87.5l121 -58q107 15 178.5 79t71.5 151q0 73 -52 120.5t-149 88.5l-76 32q-125 -5 -201.5 -59t-76.5 -145z" />
<glyph unicode="&#xa8;" horiz-adv-x="960" d="M330 1159l41 187h127l-41 -187h-127zM713 1159l41 187h127l-41 -187h-127z" />
<glyph unicode="&#xa9;" horiz-adv-x="1615" d="M139 717q0 117 34.5 224.5t98 193t149 149.5t192.5 98.5t223 34.5q146 0 276 -54t222.5 -147.5t146 -223t53.5 -275.5q0 -144 -53.5 -273.5t-146 -223t-222.5 -148t-276 -54.5q-145 0 -274.5 54.5t-222 148t-146.5 223t-54 273.5zM258 717q0 -160 75.5 -295.5t208.5 -215 t294 -79.5q122 0 230.5 47t185 126.5t121 188t44.5 228.5q0 162 -75.5 298.5t-209 217t-296.5 80.5q-161 0 -294 -80t-208.5 -217t-75.5 -299zM467 711q0 199 99.5 317.5t269.5 118.5q120 0 202 -58.5t125 -164.5l-100 -60q-56 180 -227 180q-114 0 -183 -89t-69 -242 q0 -152 70 -238t182 -86q169 0 233 154l94 -60q-48 -94 -131 -148t-196 -54q-170 0 -269.5 116.5t-99.5 313.5z" />
<glyph unicode="&#xaa;" horiz-adv-x="741" d="M174 932q0 51 18 87.5t54.5 59.5t79 37t104.5 25l141 24q36 8 43 35q9 32 9 47q0 92 -134 92q-78 0 -120 -38.5t-50 -102.5l-79 19q13 100 86 148t174 48q205 0 205 -158q0 -17 -9 -69l-57 -277q-6 -24 -6 -35q0 -30 31 -30q30 0 59 16l-16 -78q-28 -12 -68 -12 q-41 0 -64.5 21.5t-23.5 58.5v4q-28 -39 -78.5 -64.5t-112.5 -25.5q-83 0 -134.5 45t-51.5 123zM262 940q0 -51 32.5 -74.5t84.5 -23.5q66 0 117.5 37.5t70.5 109.5l25 109q-32 -10 -90 -19l-62 -12q-42 -8 -68.5 -16t-54.5 -22t-41.5 -36t-13.5 -53z" />
<glyph unicode="&#xab;" horiz-adv-x="794" d="M96 565l33 150l334 280l-37 -170l-246 -190l162 -203l-33 -153zM397 565l33 150l334 280l-37 -170l-246 -190l162 -203l-33 -153z" />
<glyph unicode="&#xac;" horiz-adv-x="1097" d="M147 821v109h811v-477h-120v368h-691z" />
<glyph unicode="&#xad;" horiz-adv-x="839" d="M115 481l26 129h568l-27 -129h-567z" />
<glyph unicode="&#xae;" horiz-adv-x="1615" d="M139 717q0 117 34.5 224.5t98 193t149 149.5t192.5 98.5t223 34.5q146 0 276 -54t222.5 -147.5t146 -223t53.5 -275.5q0 -144 -53.5 -273.5t-146 -223t-222.5 -148t-276 -54.5q-145 0 -274.5 54.5t-222 148t-146.5 223t-54 273.5zM258 717q0 -160 75.5 -295.5t208.5 -215 t294 -79.5q122 0 230.5 47t185 126.5t121 188t44.5 228.5q0 162 -75.5 298.5t-209 217t-296.5 80.5q-161 0 -294 -80t-208.5 -217t-75.5 -299zM555 307v815h334q136 0 211 -53q88 -64 88 -180q0 -99 -64.5 -163t-154.5 -75l245 -344h-133l-247 342h-175v-342h-104zM659 750 h203q98 0 142 20q32 14 50.5 45t18.5 74q0 39 -19 70t-50 45q-42 18 -142 18h-203v-272z" />
<glyph unicode="&#xaf;" horiz-adv-x="960" d="M352 1237l23 109h555l-23 -109h-555z" />
<glyph unicode="&#xb0;" horiz-adv-x="784" d="M195 1110q0 128 89.5 217.5t217.5 89.5t217.5 -89.5t89.5 -217.5t-89.5 -217.5t-217.5 -89.5t-217.5 89.5t-89.5 217.5zM313 1110q0 -84 53 -139.5t136 -55.5t135.5 55.5t52.5 139.5t-52.5 139.5t-135.5 55.5t-136 -55.5t-53 -139.5z" />
<glyph unicode="&#xb1;" horiz-adv-x="1501" d="M117 0v117h1200v-117h-1200zM117 662v114h542v438h117v-438h541v-114h-541v-443h-117v443h-542z" />
<glyph unicode="&#xb2;" horiz-adv-x="808" d="M113 535l14 86q37 20 137 84t160 106l57 42t52.5 41t51 45t40.5 45.5t34.5 51.5t20 54.5t8.5 62.5q0 73 -44.5 116.5t-121.5 43.5q-89 0 -138.5 -56.5t-49.5 -140.5q0 -34 10 -76l-113 35q-4 32 -4 49q0 119 81.5 199t217.5 80q128 0 200.5 -68t72.5 -176 q0 -69 -35.5 -138t-84 -121t-124 -108t-130 -89t-126.5 -72v-6q110 2 184 2h232l-19 -92h-583z" />
<glyph unicode="&#xb3;" horiz-adv-x="768" d="M123 764l102 33q7 -97 60 -142t133 -45q85 0 142.5 45t57.5 129q0 98 -102 138q-59 20 -145 20h-68l19 80h94q106 0 162 27q37 18 57 54.5t20 80.5q0 58 -42 94.5t-117 36.5q-66 0 -115 -42t-62 -112l-94 29q13 86 88 149.5t191 63.5q121 0 188.5 -57t67.5 -148 q0 -86 -52.5 -145t-129.5 -70l-3 -4q66 -24 106 -76.5t40 -122.5q0 -47 -19.5 -92t-55.5 -82.5t-95.5 -60.5t-132.5 -23q-136 0 -212.5 63.5t-82.5 178.5z" />
<glyph unicode="&#xb4;" horiz-adv-x="960" d="M416 1130l192 263h193l-271 -263h-114z" />
<glyph unicode="&#xb5;" horiz-adv-x="1005" d="M-57 -389l288 1364h121l-114 -543q-29 -132 -29 -180q0 -83 45 -123.5t139 -40.5q68 0 129 30.5t103.5 80t71.5 108.5t42 121l115 547h121l-207 -975h-121l35 160q-42 -83 -135.5 -134t-198.5 -51q-132 0 -188 88l-97 -452h-120z" />
<glyph unicode="&#xb6;" horiz-adv-x="1196" d="M156 979q0 192 120 297q69 62 171 89.5t294 27.5h551l-18 -90h-162l-332 -1565h-104l332 1565h-228l-331 -1565h-105l195 917h-17q-162 0 -264 82.5t-102 241.5z" />
<glyph unicode="&#xb7;" horiz-adv-x="421" d="M121 539l51 233h160l-51 -233h-160z" />
<glyph unicode="&#xb8;" horiz-adv-x="960" d="M186 -377l31 58q32 -11 64 -11q55 0 92 23t37 71q0 38 -29 57t-70 19q-31 0 -63 -14l-19 47l125 133h84l-94 -98q8 2 27 2q61 0 101 -34.5t40 -94.5q0 -81 -63.5 -128.5t-157.5 -47.5q-53 0 -105 18z" />
<glyph unicode="&#xb9;" horiz-adv-x="499" d="M170 1135l16 88h35q80 0 133 32q61 37 88 138h93l-179 -854h-102l131 628q-56 -37 -160 -37q-10 0 -55 5z" />
<glyph unicode="&#xba;" horiz-adv-x="739" d="M188 1020q0 100 36.5 187.5t114 146.5t181.5 59q113 0 177.5 -69t64.5 -189q0 -73 -21.5 -141.5t-62 -125t-105 -90.5t-143.5 -34q-112 0 -177 68.5t-65 187.5zM281 1030q0 -89 41.5 -138.5t115.5 -49.5t128.5 48.5t79 117t24.5 143.5q0 89 -42 136.5t-118 47.5 q-72 0 -126 -47.5t-78.5 -115t-24.5 -142.5z" />
<glyph unicode="&#xbb;" horiz-adv-x="794" d="M55 279l37 172l246 194l-162 197l33 153l213 -286l-33 -150zM356 279l37 172l246 194l-162 197l33 153l213 -286l-33 -150z" />
<glyph unicode="&#xbc;" horiz-adv-x="1615" d="M182 1135l17 88h34q81 0 134 32q61 37 88 138h92l-178 -854h-103l131 628q-56 -37 -159 -37q-11 0 -56 5zM240 0l929 1393h113l-930 -1393h-112zM825 219l15 72l538 563h90l-114 -547h143l-16 -88h-144l-47 -219h-98l47 219h-414zM969 303q66 4 168 4h118l58 273 q8 38 26 114h-4q-30 -40 -100 -116l-148 -152q-9 -9 -50.5 -51.5t-67.5 -67.5v-4z" />
<glyph unicode="&#xbd;" horiz-adv-x="1705" d="M180 1135l17 88h34q81 0 134 32q61 37 88 138h92l-178 -854h-103l131 628q-56 -37 -159 -37q-11 0 -56 5zM238 0l929 1393h113l-930 -1393h-112zM932 0l14 86q37 20 137 84t160 106l57 42t52.5 41t51 45t40.5 45.5t34.5 51.5t20 54.5t8.5 62.5q0 73 -44.5 116.5 t-121.5 43.5q-89 0 -138.5 -56t-49.5 -140q0 -34 10 -76l-112 35q-4 32 -4 49q0 119 81.5 198.5t217.5 79.5q128 0 200 -67.5t72 -175.5q0 -69 -35.5 -138t-84.5 -121.5t-123.5 -108t-130 -89t-126.5 -72.5v-6q111 2 185 2h231l-18 -92h-584z" />
<glyph unicode="&#xbe;" horiz-adv-x="1843" d="M113 764l102 33q7 -97 60 -142t133 -45q85 0 142.5 45t57.5 129q0 98 -102 138q-59 20 -146 20h-67l18 80h95q106 0 161 27q37 18 57.5 54.5t20.5 80.5q0 58 -42.5 94.5t-117.5 36.5q-66 0 -114.5 -42t-61.5 -112l-94 29q13 86 88 149.5t191 63.5q121 0 188.5 -57 t67.5 -148q0 -85 -53 -144.5t-130 -70.5l-2 -4q66 -24 106 -76.5t40 -122.5q0 -47 -19.5 -92t-55.5 -82.5t-95.5 -60.5t-132.5 -23q-136 0 -212.5 63.5t-82.5 178.5zM467 0l930 1393h112l-929 -1393h-113zM1053 219l14 72l539 563h90l-115 -547h143l-16 -88h-143l-47 -219 h-99l47 219h-413zM1196 303q66 4 168 4h119l57 273q3 17 27 114h-4q-26 -35 -101 -116l-147 -152l-119 -119v-4z" />
<glyph unicode="&#xbf;" horiz-adv-x="940" d="M-72 -100q0 129 74 235q44 63 125 125l180 137q79 60 103 99.5t39 113.5q2 9 5 30t5 30h123q-23 -141 -60.5 -209.5t-148.5 -149.5l-158 -116q-51 -40 -76 -68q-88 -101 -88 -217q0 -100 69.5 -170t198.5 -70q144 0 226 94.5t82 229.5q0 68 -27 147l127 -45 q16 -69 16 -127q0 -168 -123.5 -285.5t-318.5 -117.5q-176 0 -274.5 95.5t-98.5 238.5zM459 766l45 209h151l-45 -209h-151z" />
<glyph unicode="&#xc0;" horiz-adv-x="1226" d="M-100 0l825 1393h131l236 -1393h-134l-67 420h-604l-246 -420h-141zM350 532h522l-81 523q-19 121 -29 194h-2q-77 -146 -92 -172zM506 1821h196l209 -279h-114z" />
<glyph unicode="&#xc1;" horiz-adv-x="1226" d="M-100 0l825 1393h131l236 -1393h-134l-67 420h-604l-246 -420h-141zM350 532h522l-81 523q-19 121 -29 194h-2q-77 -146 -92 -172zM709 1542l209 279h196l-291 -279h-114z" />
<glyph unicode="&#xc2;" horiz-adv-x="1226" d="M-100 0l825 1393h131l236 -1393h-134l-67 420h-604l-246 -420h-141zM350 532h522l-81 523q-19 121 -29 194h-2q-77 -146 -92 -172zM528 1542l303 279h87l188 -279h-121l-127 166l-196 -166h-134z" />
<glyph unicode="&#xc3;" horiz-adv-x="1226" d="M-100 0l825 1393h131l236 -1393h-134l-67 420h-604l-246 -420h-141zM350 532h522l-81 523q-19 121 -29 194h-2q-77 -146 -92 -172zM539 1591q73 185 196 185q49 0 137 -45q6 -3 22 -11.5t22.5 -11.5t20 -9t22 -9t19.5 -5t21 -2q71 0 101 93l84 -21q-16 -34 -25 -51.5 t-28.5 -47.5t-37.5 -45t-45 -27.5t-57 -12.5q-57 0 -157 53q-88 45 -113 45q-68 0 -96 -96z" />
<glyph unicode="&#xc4;" horiz-adv-x="1226" d="M-100 0l825 1393h131l236 -1393h-134l-67 420h-604l-246 -420h-141zM350 532h522l-81 523q-19 121 -29 194h-2q-77 -146 -92 -172zM563 1573l39 186h127l-39 -186h-127zM946 1573l39 186h127l-39 -186h-127z" />
<glyph unicode="&#xc5;" horiz-adv-x="1226" d="M-100 0l825 1393h131l236 -1393h-134l-67 420h-604l-246 -420h-141zM350 532h522l-81 523q-19 121 -29 194h-2q-77 -146 -92 -172zM694 1677q0 69 49.5 117.5t118.5 48.5t118.5 -48.5t49.5 -117.5t-49.5 -117.5t-118.5 -48.5t-118.5 48.5t-49.5 117.5zM772 1677 q0 -36 26 -62t62 -26t62 26t26 62t-26 62t-62 26t-62 -26t-26 -62z" />
<glyph unicode="&#xc6;" horiz-adv-x="1859" d="M-160 0l1151 1393h934l-24 -113h-746l-106 -506h673l-24 -112h-674l-117 -549h787l-25 -113h-917l92 422h-508l-348 -422h-148zM424 535h442l105 479q18 83 34.5 155t23 98.5t5.5 26.5h-2q-79 -121 -217 -284z" />
<glyph unicode="&#xc7;" horiz-adv-x="1284" d="M115 553q0 131 30 256.5t89.5 235t142 193t194.5 131.5t240 48q182 0 306 -90t171 -258l-117 -74q-32 147 -125 227.5t-247 80.5q-108 0 -200.5 -45.5t-156 -120.5t-109 -172t-66.5 -200t-21 -204q0 -219 98.5 -345t292.5 -126q148 0 262 84t188 225l99 -73 q-196 -345 -557 -351l-64 -67q8 2 27 2q61 0 101 -34.5t40 -94.5q0 -81 -63.5 -128.5t-157.5 -47.5q-51 0 -104 18l30 58q32 -11 64 -11q55 0 92 23t37 71q0 38 -29 57t-70 19q-32 0 -63 -14l-27 47l101 107q-210 22 -319 169.5t-109 403.5z" />
<glyph unicode="&#xc8;" horiz-adv-x="1191" d="M47 0l297 1393h913l-24 -113h-784l-109 -506h711l-23 -112h-711l-118 -549h827l-25 -113h-954zM532 1821h197l209 -279h-115z" />
<glyph unicode="&#xc9;" horiz-adv-x="1191" d="M47 0l297 1393h913l-24 -113h-784l-109 -506h711l-23 -112h-711l-118 -549h827l-25 -113h-954zM676 1542l209 279h196l-290 -279h-115z" />
<glyph unicode="&#xca;" horiz-adv-x="1191" d="M47 0l297 1393h913l-24 -113h-784l-109 -506h711l-23 -112h-711l-118 -549h827l-25 -113h-954zM532 1542l304 279h86l188 -279h-121l-127 166l-196 -166h-134z" />
<glyph unicode="&#xcb;" horiz-adv-x="1191" d="M47 0l297 1393h913l-24 -113h-784l-109 -506h711l-23 -112h-711l-118 -549h827l-25 -113h-954zM580 1573l38 186h127l-38 -186h-127zM963 1573l38 186h127l-38 -186h-127z" />
<glyph unicode="&#xcc;" horiz-adv-x="471" d="M47 0l297 1393h129l-297 -1393h-129zM121 1821h196l209 -279h-114z" />
<glyph unicode="&#xcd;" horiz-adv-x="471" d="M47 0l297 1393h129l-297 -1393h-129zM365 1542l208 279h197l-291 -279h-114z" />
<glyph unicode="&#xce;" horiz-adv-x="471" d="M47 0l297 1393h129l-297 -1393h-129zM147 1542l304 279h86l188 -279h-121l-127 166l-196 -166h-134z" />
<glyph unicode="&#xcf;" horiz-adv-x="471" d="M47 0l297 1393h129l-297 -1393h-129zM186 1573l39 186h127l-39 -186h-127zM569 1573l39 186h127l-39 -186h-127z" />
<glyph unicode="&#xd0;" horiz-adv-x="1409" d="M6 690l23 115h213l125 588h309q125 0 224.5 -15.5t185 -52t142 -94.5t88.5 -147t32 -205q0 -239 -96.5 -457t-272.5 -322q-109 -63 -210 -81.5t-273 -18.5h-426l147 690h-211zM223 113h283q140 0 238 19.5t180 74.5q75 50 133.5 133.5t92 177.5t50.5 186.5t17 174.5 q0 216 -154 321q-55 37 -131.5 55.5t-134.5 21.5t-160 3h-166l-100 -475h413l-24 -115h-414z" />
<glyph unicode="&#xd1;" horiz-adv-x="1447" d="M47 0l297 1393h141l504 -1047q39 -81 76 -170h2q8 49 35 184l219 1033h129l-297 -1393h-141l-500 1047q-58 120 -78 186h-2q-8 -62 -35 -199l-221 -1034h-129zM621 1591q73 185 196 185q49 0 137 -45q6 -3 22 -11.5t22.5 -11.5t20 -9t22 -9t19.5 -5t21 -2q71 0 101 93 l84 -21q-16 -34 -25 -51.5t-28.5 -47.5t-37.5 -45t-45 -27.5t-57 -12.5q-58 0 -158 53q-6 3 -18.5 9.5t-18.5 9.5t-16.5 8t-17 7.5t-14.5 5.5t-14.5 4t-12.5 1q-68 0 -96 -96z" />
<glyph unicode="&#xd2;" horiz-adv-x="1390" d="M113 553q0 131 30 256.5t90.5 235.5t144 193t198 131t245.5 48q232 0 369 -146t137 -407q0 -132 -27.5 -258.5t-85.5 -241t-140.5 -201t-200.5 -137.5t-257 -51q-246 0 -374.5 152t-128.5 426zM246 561q0 -220 97.5 -345.5t291.5 -125.5q108 0 201 47t157.5 124.5 t110.5 176.5t68 202.5t22 203.5q0 214 -100 336.5t-291 122.5q-106 0 -198 -45.5t-156.5 -120.5t-111 -172t-69 -200t-22.5 -204zM594 1821h197l208 -279h-114z" />
<glyph unicode="&#xd3;" horiz-adv-x="1390" d="M113 553q0 131 30 256.5t90.5 235.5t144 193t198 131t245.5 48q232 0 369 -146t137 -407q0 -132 -27.5 -258.5t-85.5 -241t-140.5 -201t-200.5 -137.5t-257 -51q-246 0 -374.5 152t-128.5 426zM246 561q0 -220 97.5 -345.5t291.5 -125.5q108 0 201 47t157.5 124.5 t110.5 176.5t68 202.5t22 203.5q0 214 -100 336.5t-291 122.5q-106 0 -198 -45.5t-156.5 -120.5t-111 -172t-69 -200t-22.5 -204zM735 1542l209 279h197l-291 -279h-115z" />
<glyph unicode="&#xd4;" horiz-adv-x="1390" d="M113 553q0 131 30 256.5t90.5 235.5t144 193t198 131t245.5 48q232 0 369 -146t137 -407q0 -132 -27.5 -258.5t-85.5 -241t-140.5 -201t-200.5 -137.5t-257 -51q-246 0 -374.5 152t-128.5 426zM246 561q0 -220 97.5 -345.5t291.5 -125.5q108 0 201 47t157.5 124.5 t110.5 176.5t68 202.5t22 203.5q0 214 -100 336.5t-291 122.5q-106 0 -198 -45.5t-156.5 -120.5t-111 -172t-69 -200t-22.5 -204zM573 1542l304 279h86l188 -279h-121l-127 166l-196 -166h-134z" />
<glyph unicode="&#xd5;" horiz-adv-x="1390" d="M113 553q0 131 30 256.5t90.5 235.5t144 193t198 131t245.5 48q232 0 369 -146t137 -407q0 -132 -27.5 -258.5t-85.5 -241t-140.5 -201t-200.5 -137.5t-257 -51q-246 0 -374.5 152t-128.5 426zM246 561q0 -220 97.5 -345.5t291.5 -125.5q108 0 201 47t157.5 124.5 t110.5 176.5t68 202.5t22 203.5q0 214 -100 336.5t-291 122.5q-106 0 -198 -45.5t-156.5 -120.5t-111 -172t-69 -200t-22.5 -204zM582 1591q73 185 196 185q49 0 137 -45q6 -3 22 -11.5t22.5 -11.5t20 -9t22 -9t19.5 -5t21 -2q71 0 101 93l84 -21q-16 -34 -25 -51.5 t-28.5 -47.5t-37.5 -45t-45 -27.5t-57 -12.5q-57 0 -157 53q-88 45 -113 45q-68 0 -96 -96z" />
<glyph unicode="&#xd6;" horiz-adv-x="1390" d="M113 553q0 131 30 256.5t90.5 235.5t144 193t198 131t245.5 48q232 0 369 -146t137 -407q0 -132 -27.5 -258.5t-85.5 -241t-140.5 -201t-200.5 -137.5t-257 -51q-246 0 -374.5 152t-128.5 426zM246 561q0 -220 97.5 -345.5t291.5 -125.5q108 0 201 47t157.5 124.5 t110.5 176.5t68 202.5t22 203.5q0 214 -100 336.5t-291 122.5q-106 0 -198 -45.5t-156.5 -120.5t-111 -172t-69 -200t-22.5 -204zM588 1573l39 186h127l-39 -186h-127zM971 1573l39 186h127l-39 -186h-127z" />
<glyph unicode="&#xd7;" horiz-adv-x="1413" d="M166 135l467 467l-467 467l82 82l467 -467l467 467l82 -82l-467 -467l467 -467l-82 -82l-467 467l-467 -467z" />
<glyph unicode="&#xd8;" horiz-adv-x="1415" d="M-92 43l262 238q-41 118 -41 272q0 131 30 256.5t90.5 235.5t144.5 193t198.5 131t245.5 48q259 0 395 -178l252 227l78 -88l-271 -243q51 -117 51 -271q0 -132 -27.5 -258.5t-85 -241t-140 -201t-200.5 -137.5t-257 -51q-280 0 -408 195l-237 -215zM262 561 q0 -96 19 -180l852 768q-101 154 -314 154q-106 0 -198 -45.5t-156.5 -120.5t-111 -172t-69 -200t-22.5 -204zM328 262q96 -172 323 -172q108 0 201 47t157.5 124.5t110.5 176.5t68 202.5t22 203.5q0 110 -26 192z" />
<glyph unicode="&#xd9;" horiz-adv-x="1370" d="M129 377q0 57 25 186l178 830h127l-174 -822q-27 -131 -27 -184q0 -149 89 -224t263 -75q196 0 305 100q53 50 89 124t63 194l188 887h127l-184 -871q-65 -299 -192 -418q-137 -131 -410 -131q-229 0 -348 106.5t-119 297.5zM565 1821h197l209 -279h-115z" />
<glyph unicode="&#xda;" horiz-adv-x="1370" d="M129 377q0 57 25 186l178 830h127l-174 -822q-27 -131 -27 -184q0 -149 89 -224t263 -75q196 0 305 100q53 50 89 124t63 194l188 887h127l-184 -871q-65 -299 -192 -418q-137 -131 -410 -131q-229 0 -348 106.5t-119 297.5zM739 1542l209 279h197l-291 -279h-115z" />
<glyph unicode="&#xdb;" horiz-adv-x="1370" d="M129 377q0 57 25 186l178 830h127l-174 -822q-27 -131 -27 -184q0 -149 89 -224t263 -75q196 0 305 100q53 50 89 124t63 194l188 887h127l-184 -871q-65 -299 -192 -418q-137 -131 -410 -131q-229 0 -348 106.5t-119 297.5zM592 1542l303 279h86l188 -279h-120l-127 166 l-197 -166h-133z" />
<glyph unicode="&#xdc;" horiz-adv-x="1370" d="M129 377q0 57 25 186l178 830h127l-174 -822q-27 -131 -27 -184q0 -149 89 -224t263 -75q196 0 305 100q53 50 89 124t63 194l188 887h127l-184 -871q-65 -299 -192 -418q-137 -131 -410 -131q-229 0 -348 106.5t-119 297.5zM641 1573l39 186h127l-39 -186h-127z M1024 1573l39 186h127l-39 -186h-127z" />
<glyph unicode="&#xdd;" horiz-adv-x="1163" d="M176 1393h137l283 -693l580 693h155l-696 -820l-123 -573h-129l123 573zM629 1542l209 279h196l-291 -279h-114z" />
<glyph unicode="&#xde;" horiz-adv-x="1255" d="M49 0l295 1393h129l-45 -205h360q115 0 185 -14t125 -44q147 -82 147 -262q0 -134 -56 -238t-159 -161q-58 -31 -135 -45t-205 -14h-426l-88 -410h-127zM289 524h413q114 0 178.5 14t110.5 46q129 87 129 274q0 146 -139 195q-65 22 -201 22h-374z" />
<glyph unicode="&#xdf;" horiz-adv-x="966" d="M18 0l220 1026q29 130 60.5 202.5t90.5 121.5q88 73 232 73q139 0 223 -66.5t84 -189.5q0 -129 -65.5 -219t-184.5 -108v-2q28 -7 49.5 -14.5t48 -26t43.5 -43.5t29 -68.5t12 -99.5q0 -70 -22 -180q-51 -233 -136.5 -326.5t-228.5 -93.5q-122 0 -171.5 58t-49.5 159 q0 63 16 135l13 53h94l-10 -51q-17 -79 -17 -119q0 -141 129 -141q51 0 90.5 22.5t67 68.5t47 101.5t37.5 135.5q20 90 20 165q0 119 -62.5 162t-209.5 43h-105l19 99h80q96 0 155 16.5t103 52.5q86 70 86 205q0 75 -49.5 119.5t-143.5 44.5q-97 0 -153 -53 q-37 -36 -61.5 -97.5t-45.5 -163.5l-213 -1001h-121z" />
<glyph unicode="&#xe0;" horiz-adv-x="985" d="M25 236q0 76 27.5 132t83 93t124 59.5t166.5 38.5l227 39q40 7 56 21.5t22 44.5q10 48 10 77q0 156 -219 156q-130 0 -200.5 -61t-81.5 -162l-111 26q9 78 47 137.5t95.5 93t124.5 50t141 16.5q319 0 319 -241q0 -48 -14 -113l-94 -442q-9 -43 -9 -62q0 -57 62 -57 q46 0 78 20l-21 -96q-36 -20 -100 -20q-62 0 -97.5 26t-35.5 78q0 21 6 45l-2 2q-42 -74 -123 -118t-193 -44q-129 0 -208.5 69t-79.5 192zM145 248q0 -88 54 -129t145 -41q112 0 197.5 61t113.5 185l43 196q-24 -14 -159 -39l-103 -18q-52 -9 -89.5 -18.5t-78 -26.5 t-65.5 -38.5t-41.5 -55t-16.5 -76.5zM324 1393h192l193 -263h-115z" />
<glyph unicode="&#xe1;" horiz-adv-x="985" d="M25 236q0 76 27.5 132t83 93t124 59.5t166.5 38.5l227 39q40 7 56 21.5t22 44.5q10 48 10 77q0 156 -219 156q-130 0 -200.5 -61t-81.5 -162l-111 26q9 78 47 137.5t95.5 93t124.5 50t141 16.5q319 0 319 -241q0 -48 -14 -113l-94 -442q-9 -43 -9 -62q0 -57 62 -57 q46 0 78 20l-21 -96q-36 -20 -100 -20q-62 0 -97.5 26t-35.5 78q0 21 6 45l-2 2q-42 -74 -123 -118t-193 -44q-129 0 -208.5 69t-79.5 192zM145 248q0 -88 54 -129t145 -41q112 0 197.5 61t113.5 185l43 196q-24 -14 -159 -39l-103 -18q-52 -9 -89.5 -18.5t-78 -26.5 t-65.5 -38.5t-41.5 -55t-16.5 -76.5zM481 1130l193 263h192l-270 -263h-115z" />
<glyph unicode="&#xe2;" horiz-adv-x="985" d="M25 236q0 76 27.5 132t83 93t124 59.5t166.5 38.5l227 39q40 7 56 21.5t22 44.5q10 48 10 77q0 156 -219 156q-130 0 -200.5 -61t-81.5 -162l-111 26q9 78 47 137.5t95.5 93t124.5 50t141 16.5q319 0 319 -241q0 -48 -14 -113l-94 -442q-9 -43 -9 -62q0 -57 62 -57 q46 0 78 20l-21 -96q-36 -20 -100 -20q-62 0 -97.5 26t-35.5 78q0 21 6 45l-2 2q-42 -74 -123 -118t-193 -44q-129 0 -208.5 69t-79.5 192zM145 248q0 -88 54 -129t145 -41q112 0 197.5 61t113.5 185l43 196q-24 -14 -159 -39l-103 -18q-52 -9 -89.5 -18.5t-78 -26.5 t-65.5 -38.5t-41.5 -55t-16.5 -76.5zM326 1130l286 263h86l176 -263h-120l-111 158l-180 -158h-137z" />
<glyph unicode="&#xe3;" horiz-adv-x="985" d="M25 236q0 76 27.5 132t83 93t124 59.5t166.5 38.5l227 39q40 7 56 21.5t22 44.5q10 48 10 77q0 156 -219 156q-130 0 -200.5 -61t-81.5 -162l-111 26q9 78 47 137.5t95.5 93t124.5 50t141 16.5q319 0 319 -241q0 -48 -14 -113l-94 -442q-9 -43 -9 -62q0 -57 62 -57 q46 0 78 20l-21 -96q-36 -20 -100 -20q-62 0 -97.5 26t-35.5 78q0 21 6 45l-2 2q-42 -74 -123 -118t-193 -44q-129 0 -208.5 69t-79.5 192zM145 248q0 -88 54 -129t145 -41q112 0 197.5 61t113.5 185l43 196q-24 -14 -159 -39l-103 -18q-52 -9 -89.5 -18.5t-78 -26.5 t-65.5 -38.5t-41.5 -55t-16.5 -76.5zM274 1180q72 184 197 184q49 0 137 -45q4 -2 18.5 -9.5t19.5 -10t17.5 -8.5t19 -8t16.5 -5.5t18.5 -4.5t17.5 -1q71 0 101 92l84 -21q-16 -34 -25 -51.5t-28.5 -47.5t-37.5 -45t-45 -27.5t-57 -12.5q-58 0 -158 53q-6 3 -18.5 9.5 t-18.5 9.5t-16.5 8t-17 7.5t-14.5 5.5t-14.5 4t-12.5 1q-69 0 -97 -96z" />
<glyph unicode="&#xe4;" horiz-adv-x="985" d="M25 236q0 76 27.5 132t83 93t124 59.5t166.5 38.5l227 39q40 7 56 21.5t22 44.5q10 48 10 77q0 156 -219 156q-130 0 -200.5 -61t-81.5 -162l-111 26q9 78 47 137.5t95.5 93t124.5 50t141 16.5q319 0 319 -241q0 -48 -14 -113l-94 -442q-9 -43 -9 -62q0 -57 62 -57 q46 0 78 20l-21 -96q-36 -20 -100 -20q-62 0 -97.5 26t-35.5 78q0 21 6 45l-2 2q-42 -74 -123 -118t-193 -44q-129 0 -208.5 69t-79.5 192zM145 248q0 -88 54 -129t145 -41q112 0 197.5 61t113.5 185l43 196q-24 -14 -159 -39l-103 -18q-52 -9 -89.5 -18.5t-78 -26.5 t-65.5 -38.5t-41.5 -55t-16.5 -76.5zM326 1159l41 187h127l-41 -187h-127zM709 1159l41 187h127l-41 -187h-127z" />
<glyph unicode="&#xe5;" horiz-adv-x="985" d="M25 236q0 76 27.5 132t83 93t124 59.5t166.5 38.5l227 39q40 7 56 21.5t22 44.5q10 48 10 77q0 156 -219 156q-130 0 -200.5 -61t-81.5 -162l-111 26q9 78 47 137.5t95.5 93t124.5 50t141 16.5q319 0 319 -241q0 -48 -14 -113l-94 -442q-9 -43 -9 -62q0 -57 62 -57 q46 0 78 20l-21 -96q-36 -20 -100 -20q-62 0 -97.5 26t-35.5 78q0 21 6 45l-2 2q-42 -74 -123 -118t-193 -44q-129 0 -208.5 69t-79.5 192zM145 248q0 -88 54 -129t145 -41q112 0 197.5 61t113.5 185l43 196q-24 -14 -159 -39l-103 -18q-52 -9 -89.5 -18.5t-78 -26.5 t-65.5 -38.5t-41.5 -55t-16.5 -76.5zM442 1266q0 69 49.5 117.5t118.5 48.5t118.5 -48.5t49.5 -117.5t-49.5 -117.5t-118.5 -48.5t-118.5 48.5t-49.5 117.5zM520 1266q0 -36 26 -62t62 -26t62 26t26 62t-26 62t-62 26t-62 -26t-26 -62z" />
<glyph unicode="&#xe6;" horiz-adv-x="1634" d="M25 236q0 76 27.5 132t83 93t124 59.5t166.5 38.5l227 39q40 7 56 21.5t22 44.5q10 48 10 77q0 156 -219 156q-130 0 -200.5 -61t-81.5 -162l-111 26q9 78 47 137.5t95.5 93t124.5 50t141 16.5q248 0 303 -149q149 149 344 149q92 0 161.5 -30t110.5 -82.5t61.5 -119 t20.5 -144.5q0 -73 -16 -142h-723q-6 -43 -6 -88q0 -64 14.5 -117t45 -97.5t85.5 -69.5t129 -25q57 0 108 16t85 38t65.5 55.5t48.5 58.5t35 57l92 -63q-151 -269 -444 -269q-272 0 -352 211q-70 -107 -163 -159t-220 -52q-135 0 -216 68.5t-81 192.5zM145 248 q0 -88 54 -129t145 -41q112 0 197.5 61t113.5 185l43 196q-24 -14 -159 -39l-103 -18q-52 -9 -89.5 -18.5t-78 -26.5t-65.5 -38.5t-41.5 -55t-16.5 -76.5zM821 578h588q4 36 4 59q0 52 -12.5 96t-39.5 81.5t-75.5 59t-114.5 21.5q-67 0 -127 -28t-103.5 -74.5t-74 -101.5 t-45.5 -113z" />
<glyph unicode="&#xe7;" horiz-adv-x="985" d="M61 379q0 119 34.5 229t97.5 197t161 139.5t215 52.5q141 0 236.5 -74.5t126.5 -203.5l-109 -57q-9 37 -21 67t-33.5 61.5t-49 53.5t-69.5 35.5t-93 13.5q-88 0 -161.5 -46.5t-118 -120t-69 -160t-24.5 -171.5q0 -146 66.5 -229.5t195.5 -83.5q208 0 322 227l94 -63 q-140 -263 -407 -271l-60 -67q8 2 27 2q61 0 101 -34.5t40 -94.5q0 -81 -63.5 -128.5t-157.5 -47.5q-52 0 -104 18l30 58q32 -11 64 -11q55 0 92 23t37 71q0 38 -29 57t-70 19q-32 0 -63 -14l-18 47l96 107q-155 18 -235.5 123t-80.5 276z" />
<glyph unicode="&#xe8;" horiz-adv-x="1026" d="M61 397q0 159 64.5 295.5t183.5 220.5t266 84q92 0 161.5 -30t111 -82.5t62 -119t20.5 -144.5q0 -69 -17 -142h-723q-6 -43 -6 -88q0 -64 14.5 -117.5t45.5 -97.5t86 -69t129 -25q57 0 108 16t85 38t65.5 55.5t48.5 58.5t35 57l92 -63q-151 -269 -444 -269 q-190 0 -289 107.5t-99 314.5zM213 578h588q4 36 4 59q0 52 -12.5 96t-39.5 81.5t-75.5 59t-114.5 21.5q-67 0 -127 -28t-103.5 -74.5t-74 -101.5t-45.5 -113zM362 1393h193l193 -263h-115z" />
<glyph unicode="&#xe9;" horiz-adv-x="1026" d="M61 397q0 159 64.5 295.5t183.5 220.5t266 84q92 0 161.5 -30t111 -82.5t62 -119t20.5 -144.5q0 -69 -17 -142h-723q-6 -43 -6 -88q0 -64 14.5 -117.5t45.5 -97.5t86 -69t129 -25q57 0 108 16t85 38t65.5 55.5t48.5 58.5t35 57l92 -63q-151 -269 -444 -269 q-190 0 -289 107.5t-99 314.5zM213 578h588q4 36 4 59q0 52 -12.5 96t-39.5 81.5t-75.5 59t-114.5 21.5q-67 0 -127 -28t-103.5 -74.5t-74 -101.5t-45.5 -113zM506 1130l192 263h193l-270 -263h-115z" />
<glyph unicode="&#xea;" horiz-adv-x="1026" d="M61 397q0 159 64.5 295.5t183.5 220.5t266 84q92 0 161.5 -30t111 -82.5t62 -119t20.5 -144.5q0 -69 -17 -142h-723q-6 -43 -6 -88q0 -64 14.5 -117.5t45.5 -97.5t86 -69t129 -25q57 0 108 16t85 38t65.5 55.5t48.5 58.5t35 57l92 -63q-151 -269 -444 -269 q-190 0 -289 107.5t-99 314.5zM213 578h588q4 36 4 59q0 52 -12.5 96t-39.5 81.5t-75.5 59t-114.5 21.5q-67 0 -127 -28t-103.5 -74.5t-74 -101.5t-45.5 -113zM322 1130l286 263h86l176 -263h-120l-111 158l-180 -158h-137z" />
<glyph unicode="&#xeb;" horiz-adv-x="1026" d="M61 397q0 159 64.5 295.5t183.5 220.5t266 84q92 0 161.5 -30t111 -82.5t62 -119t20.5 -144.5q0 -69 -17 -142h-723q-6 -43 -6 -88q0 -64 14.5 -117.5t45.5 -97.5t86 -69t129 -25q57 0 108 16t85 38t65.5 55.5t48.5 58.5t35 57l92 -63q-151 -269 -444 -269 q-190 0 -289 107.5t-99 314.5zM213 578h588q4 36 4 59q0 52 -12.5 96t-39.5 81.5t-75.5 59t-114.5 21.5q-67 0 -127 -28t-103.5 -74.5t-74 -101.5t-45.5 -113zM346 1159l41 187h127l-41 -187h-127zM729 1159l41 187h127l-41 -187h-127z" />
<glyph unicode="&#xec;" horiz-adv-x="403" d="M-4 1393h192l193 -263h-115zM18 0l207 973h121l-207 -973h-121z" />
<glyph unicode="&#xed;" horiz-adv-x="403" d="M18 0l207 973h121l-207 -973h-121zM229 1130l193 263h192l-270 -263h-115z" />
<glyph unicode="&#xee;" horiz-adv-x="403" d="M18 0l207 973h121l-207 -973h-121zM39 1130l287 263h86l176 -263h-121l-111 158l-180 -158h-137z" />
<glyph unicode="&#xef;" horiz-adv-x="403" d="M18 0l207 973h121l-207 -973h-121zM70 1159l41 187h127l-41 -187h-127zM453 1159l41 187h127l-41 -187h-127z" />
<glyph unicode="&#xf0;" horiz-adv-x="1058" d="M59 369q0 113 34 220t96 193t157.5 138.5t208.5 52.5q112 0 192.5 -59t110.5 -158q-4 218 -80 389l-332 -98l-20 79l317 95q-53 99 -106 159l102 56q71 -86 119 -185l227 70l21 -82l-211 -65q74 -202 74 -429q0 -116 -18 -223.5t-59.5 -208t-103 -175t-154.5 -119 t-208 -44.5q-169 0 -268 105.5t-99 288.5zM182 383q0 -145 67.5 -224t188.5 -79q72 0 134.5 29.5t106 78.5t74.5 112.5t45.5 132t14.5 136.5q0 142 -69 221.5t-191 79.5q-71 0 -132 -29t-104 -77.5t-74 -111.5t-46 -131.5t-15 -137.5z" />
<glyph unicode="&#xf1;" horiz-adv-x="1026" d="M18 0l207 975h121l-35 -162q38 75 133.5 129.5t200.5 54.5q129 0 199.5 -70t70.5 -190q0 -69 -22 -168l-121 -569h-121l111 522q29 132 29 197q0 85 -46 125.5t-143 40.5q-68 0 -129 -30.5t-104.5 -80t-72.5 -108.5t-42 -121l-115 -545h-121zM336 1180q72 184 196 184 q50 0 138 -45q4 -2 18.5 -9.5t19.5 -10t17.5 -8.5t19 -8t16.5 -5.5t18.5 -4.5t17.5 -1q70 0 100 92l84 -21q-16 -34 -25 -51.5t-28.5 -47.5t-37.5 -45t-45 -27.5t-57 -12.5q-57 0 -157 53q-88 45 -113 45q-68 0 -96 -96z" />
<glyph unicode="&#xf2;" horiz-adv-x="1058" d="M59 379q0 92 21.5 181t65 168t105 139t147 95t184.5 35q176 0 276 -108.5t100 -296.5q0 -92 -20.5 -180t-64 -167.5t-104 -139t-146.5 -95t-187 -35.5q-177 0 -277 108t-100 296zM184 393q0 -148 70.5 -230.5t194.5 -82.5q92 0 167.5 46.5t121.5 121t71 162.5t25 176 q0 147 -71 228t-196 81q-91 0 -165.5 -45.5t-121 -118.5t-71.5 -161t-25 -177zM385 1393h193l192 -263h-115z" />
<glyph unicode="&#xf3;" horiz-adv-x="1058" d="M59 379q0 92 21.5 181t65 168t105 139t147 95t184.5 35q176 0 276 -108.5t100 -296.5q0 -92 -20.5 -180t-64 -167.5t-104 -139t-146.5 -95t-187 -35.5q-177 0 -277 108t-100 296zM184 393q0 -148 70.5 -230.5t194.5 -82.5q92 0 167.5 46.5t121.5 121t71 162.5t25 176 q0 147 -71 228t-196 81q-91 0 -165.5 -45.5t-121 -118.5t-71.5 -161t-25 -177zM512 1130l193 263h192l-270 -263h-115z" />
<glyph unicode="&#xf4;" horiz-adv-x="1058" d="M59 379q0 92 21.5 181t65 168t105 139t147 95t184.5 35q176 0 276 -108.5t100 -296.5q0 -92 -20.5 -180t-64 -167.5t-104 -139t-146.5 -95t-187 -35.5q-177 0 -277 108t-100 296zM184 393q0 -148 70.5 -230.5t194.5 -82.5q92 0 167.5 46.5t121.5 121t71 162.5t25 176 q0 147 -71 228t-196 81q-91 0 -165.5 -45.5t-121 -118.5t-71.5 -161t-25 -177zM362 1130l287 263h86l176 -263h-120l-111 158l-180 -158h-138z" />
<glyph unicode="&#xf5;" horiz-adv-x="1058" d="M59 379q0 92 21.5 181t65 168t105 139t147 95t184.5 35q176 0 276 -108.5t100 -296.5q0 -92 -20.5 -180t-64 -167.5t-104 -139t-146.5 -95t-187 -35.5q-177 0 -277 108t-100 296zM184 393q0 -148 70.5 -230.5t194.5 -82.5q92 0 167.5 46.5t121.5 121t71 162.5t25 176 q0 147 -71 228t-196 81q-91 0 -165.5 -45.5t-121 -118.5t-71.5 -161t-25 -177zM342 1180q72 184 197 184q49 0 137 -45q4 -2 18.5 -9.5t19.5 -10t17.5 -8.5t19 -8t16.5 -5.5t18.5 -4.5t17.5 -1q70 0 100 92l84 -21q-17 -35 -25.5 -52t-28 -47t-37 -45t-44.5 -27.5t-57 -12.5 q-58 0 -158 53q-88 45 -113 45q-68 0 -96 -96z" />
<glyph unicode="&#xf6;" horiz-adv-x="1058" d="M59 379q0 92 21.5 181t65 168t105 139t147 95t184.5 35q176 0 276 -108.5t100 -296.5q0 -92 -20.5 -180t-64 -167.5t-104 -139t-146.5 -95t-187 -35.5q-177 0 -277 108t-100 296zM184 393q0 -148 70.5 -230.5t194.5 -82.5q92 0 167.5 46.5t121.5 121t71 162.5t25 176 q0 147 -71 228t-196 81q-91 0 -165.5 -45.5t-121 -118.5t-71.5 -161t-25 -177zM371 1159l41 187h127l-41 -187h-127zM754 1159l41 187h127l-41 -187h-127z" />
<glyph unicode="&#xf7;" horiz-adv-x="1636" d="M111 430v117h1378v-117h-1378zM719 0v207h160v-207h-160zM719 770v205h160v-205h-160z" />
<glyph unicode="&#xf8;" horiz-adv-x="1056" d="M-25 -2l140 143q-54 97 -54 238q0 119 35.5 229t100 197t165 139.5t220.5 52.5q172 0 272 -100l145 147l80 -71l-161 -164q43 -91 43 -201q0 -118 -33.5 -229t-96 -202t-165 -146.5t-228.5 -55.5q-161 0 -258 84l-133 -135zM184 395q0 -87 25 -157l561 573 q-69 82 -203 82q-72 0 -135.5 -30.5t-108 -81t-76.5 -115.5t-47.5 -134.5t-15.5 -136.5zM266 147q65 -65 180 -65q79 0 145.5 32.5t111 84.5t76 119.5t45.5 136t14 135.5q0 58 -17 121z" />
<glyph unicode="&#xf9;" horiz-adv-x="1015" d="M72 229q0 75 22 174l121 572h121l-111 -524q-28 -128 -28 -199q0 -83 43 -123.5t137 -40.5q68 0 129 30.5t103.5 80t71.5 108.5t42 121l115 547h120l-206 -975h-121l35 160q-39 -76 -131.5 -130.5t-200.5 -54.5q-123 0 -192.5 68.5t-69.5 185.5zM354 1393h193l192 -263 h-114z" />
<glyph unicode="&#xfa;" horiz-adv-x="1015" d="M72 229q0 75 22 174l121 572h121l-111 -524q-28 -128 -28 -199q0 -83 43 -123.5t137 -40.5q68 0 129 30.5t103.5 80t71.5 108.5t42 121l115 547h120l-206 -975h-121l35 160q-39 -76 -131.5 -130.5t-200.5 -54.5q-123 0 -192.5 68.5t-69.5 185.5zM492 1130l192 263h193 l-271 -263h-114z" />
<glyph unicode="&#xfb;" horiz-adv-x="1015" d="M72 229q0 75 22 174l121 572h121l-111 -524q-28 -128 -28 -199q0 -83 43 -123.5t137 -40.5q68 0 129 30.5t103.5 80t71.5 108.5t42 121l115 547h120l-206 -975h-121l35 160q-39 -76 -131.5 -130.5t-200.5 -54.5q-123 0 -192.5 68.5t-69.5 185.5zM332 1130l286 263h87 l176 -263h-121l-111 158l-180 -158h-137z" />
<glyph unicode="&#xfc;" horiz-adv-x="1015" d="M72 229q0 75 22 174l121 572h121l-111 -524q-28 -128 -28 -199q0 -83 43 -123.5t137 -40.5q68 0 129 30.5t103.5 80t71.5 108.5t42 121l115 547h120l-206 -975h-121l35 160q-39 -76 -131.5 -130.5t-200.5 -54.5q-123 0 -192.5 68.5t-69.5 185.5zM362 1159l41 187h127 l-41 -187h-127zM745 1159l41 187h127l-41 -187h-127z" />
<glyph unicode="&#xfd;" horiz-adv-x="911" d="M-135 -377l22 115q53 -43 113 -43q59 0 96 43q29 32 78 115l88 151l-141 971h125l90 -649l24 -170h2q22 42 103 176l383 643h129l-670 -1106q-82 -139 -121 -186q-41 -51 -86 -74t-110 -23q-70 0 -125 37zM475 1130l193 263h192l-270 -263h-115z" />
<glyph unicode="&#xfe;" horiz-adv-x="1087" d="M-63 -389l376 1780h119l-123 -578h2q44 80 132.5 132t193.5 52q162 0 257 -103.5t95 -287.5q0 -166 -59.5 -308.5t-176.5 -232.5t-268 -90q-132 0 -207.5 67t-95.5 163l-125 -594h-120zM231 383q0 -142 64.5 -222.5t193.5 -80.5q87 0 160.5 47t119.5 121t71.5 161.5 t25.5 172.5q0 145 -66 228t-198 83q-72 0 -134 -32t-105 -85t-73.5 -120t-44.5 -136.5t-14 -136.5z" />
<glyph unicode="&#xff;" horiz-adv-x="911" d="M-135 -377l22 115q53 -43 113 -43q59 0 96 43q29 32 78 115l88 151l-141 971h125l90 -649l24 -170h2q22 42 103 176l383 643h129l-670 -1106q-82 -139 -121 -186q-41 -51 -86 -74t-110 -23q-70 0 -125 37zM315 1159l41 187h127l-41 -187h-127zM698 1159l41 187h127 l-41 -187h-127z" />
<glyph unicode="&#x152;" horiz-adv-x="1857" d="M119 569q0 130 29.5 253.5t89 231t141.5 188.5t195 128t243 47q158 0 268 -67l11 43h829l-24 -113h-701l-108 -506h626l-22 -112h-627l-119 -549h744l-25 -113h-870l8 33q-100 -35 -191 -35q-244 0 -370.5 150t-126.5 421zM250 578q0 -219 95.5 -345.5t287.5 -126.5 q103 0 198 50l228 1061q-107 92 -260 92q-87 0 -165.5 -31.5t-137.5 -85.5t-106.5 -126t-77.5 -154t-46 -167t-16 -167z" />
<glyph unicode="&#x153;" horiz-adv-x="1769" d="M61 379q0 119 34.5 229t97.5 197t162.5 139.5t219.5 52.5q127 0 217 -57t128 -162q70 102 172.5 160.5t226.5 58.5q92 0 161.5 -30t110.5 -82.5t61.5 -119t20.5 -144.5q0 -73 -16 -142h-723q-6 -43 -6 -88q0 -64 14.5 -117t45 -97.5t85.5 -69.5t129 -25q57 0 108 16 t85 38t65.5 55.5t48.5 58.5t35 57l92 -63q-151 -269 -444 -269q-275 0 -356 222q-146 -222 -404 -222q-183 0 -277 107.5t-94 296.5zM184 395q0 -147 64 -230t192 -83q79 0 145 32.5t109.5 84.5t73.5 119.5t43.5 136t13.5 135.5q0 143 -64.5 223t-199.5 80q-90 0 -164 -46.5 t-119 -120t-69.5 -160t-24.5 -171.5zM956 578h588q4 36 4 59q0 52 -12.5 96t-39.5 81.5t-75 59t-114 21.5q-88 0 -164 -49t-121 -119t-66 -149z" />
<glyph unicode="&#x178;" horiz-adv-x="1163" d="M176 1393h137l283 -693l580 693h155l-696 -820l-123 -573h-129l123 573zM496 1573l39 186h127l-39 -186h-127zM879 1573l39 186h126l-38 -186h-127z" />
<glyph unicode="&#x2c6;" horiz-adv-x="960" d="M297 1130l287 263h86l176 -263h-121l-111 158l-180 -158h-137z" />
<glyph unicode="&#x2dc;" horiz-adv-x="960" d="M276 1180q72 184 197 184q49 0 137 -45q4 -2 18.5 -9.5t19.5 -10t17.5 -8.5t19 -8t16.5 -5.5t18.5 -4.5t17.5 -1q71 0 101 92l84 -21q-16 -34 -25 -51.5t-28.5 -47.5t-37.5 -45t-45 -27.5t-57 -12.5q-58 0 -158 53q-6 3 -18.5 9.5t-18.5 9.5t-16.5 8t-17 7.5t-14.5 5.5 t-14.5 4t-12.5 1q-69 0 -97 -96z" />
<glyph unicode="&#x2000;" horiz-adv-x="921" />
<glyph unicode="&#x2001;" horiz-adv-x="1843" />
<glyph unicode="&#x2002;" horiz-adv-x="921" />
<glyph unicode="&#x2003;" horiz-adv-x="1843" />
<glyph unicode="&#x2004;" horiz-adv-x="614" />
<glyph unicode="&#x2005;" horiz-adv-x="460" />
<glyph unicode="&#x2006;" horiz-adv-x="307" />
<glyph unicode="&#x2007;" horiz-adv-x="307" />
<glyph unicode="&#x2008;" horiz-adv-x="230" />
<glyph unicode="&#x2009;" horiz-adv-x="368" />
<glyph unicode="&#x200a;" horiz-adv-x="102" />
<glyph unicode="&#x2010;" horiz-adv-x="839" d="M115 481l26 129h568l-27 -129h-567z" />
<glyph unicode="&#x2011;" horiz-adv-x="839" d="M115 481l26 129h568l-27 -129h-567z" />
<glyph unicode="&#x2012;" horiz-adv-x="839" d="M115 481l26 129h568l-27 -129h-567z" />
<glyph unicode="&#x2013;" horiz-adv-x="1310" d="M117 496l22 114h1041l-23 -114h-1040z" />
<glyph unicode="&#x2014;" horiz-adv-x="1701" d="M117 496l22 114h1432l-23 -114h-1431z" />
<glyph unicode="&#x2018;" horiz-adv-x="397" d="M180 891l70 311q24 100 71 147t144 64l-14 -72q-65 -17 -92 -56.5t-44 -117.5l-10 -43h86l-51 -233h-160z" />
<glyph unicode="&#x2019;" horiz-adv-x="395" d="M174 870l14 72q65 17 92 56.5t44 117.5l10 43h-86l51 234h160l-70 -312q-24 -100 -71 -147t-144 -64z" />
<glyph unicode="&#x201a;" horiz-adv-x="407" d="M-72 -289l15 72q65 17 91.5 56t43.5 118l10 43h-86l51 233h160l-70 -311q-24 -100 -71 -147t-144 -64z" />
<glyph unicode="&#x201c;" horiz-adv-x="667" d="M180 891l70 311q24 100 71 147t144 64l-14 -72q-65 -17 -92 -56.5t-44 -117.5l-10 -43h86l-51 -233h-160zM451 891l69 311q24 100 71 147t144 64l-14 -72q-65 -17 -91.5 -56t-43.5 -118l-11 -43h87l-52 -233h-159z" />
<glyph unicode="&#x201d;" horiz-adv-x="665" d="M174 870l14 72q65 17 92 56.5t44 117.5l10 43h-86l51 234h160l-70 -312q-24 -100 -71 -147t-144 -64zM444 870l15 72q65 17 91.5 56t43.5 118l10 43h-86l51 234h160l-70 -312q-24 -100 -71 -147t-144 -64z" />
<glyph unicode="&#x201e;" horiz-adv-x="677" d="M-72 -289l15 72q65 17 91.5 56t43.5 118l10 43h-86l51 233h160l-70 -311q-24 -100 -71 -147t-144 -64zM199 -289l14 72q65 17 91.5 56t43.5 118l10 43h-86l52 233h159l-69 -311q-24 -100 -71 -147t-144 -64z" />
<glyph unicode="&#x2022;" horiz-adv-x="772" d="M168 702q0 100 70 170t170 70t169.5 -70t69.5 -170t-69.5 -169.5t-169.5 -69.5t-170 69.5t-70 169.5z" />
<glyph unicode="&#x2026;" horiz-adv-x="1779" d="M2 0l51 233h160l-51 -233h-160zM688 0l51 233h160l-51 -233h-160zM1374 0l51 233h160l-51 -233h-160z" />
<glyph unicode="&#x202f;" horiz-adv-x="368" />
<glyph unicode="&#x2039;" horiz-adv-x="493" d="M96 565l33 150l334 280l-37 -170l-246 -190l162 -203l-33 -153z" />
<glyph unicode="&#x203a;" horiz-adv-x="493" d="M55 279l37 172l246 194l-162 197l33 153l213 -286l-33 -150z" />
<glyph unicode="&#x205f;" horiz-adv-x="460" />
<glyph unicode="&#x20ac;" horiz-adv-x="1275" d="M51 506l64 108h114q6 77 25 162h-145l61 109h111q35 113 89 207t125 167.5t164.5 115t198.5 42.5q63 0 123.5 -18t121.5 -58.5t106.5 -118t62.5 -184.5l-119 -57q-21 152 -98 238t-207 86q-80 0 -151 -33t-125 -92.5t-95 -132.5t-71 -162h548l-63 -109h-514 q-23 -104 -27 -162h461l-63 -108h-402q2 -112 28 -194.5t70 -130t99 -69.5t121 -22q120 0 217.5 78.5t165.5 212.5l96 -66q-82 -156 -207 -247t-283 -91q-212 0 -320 141t-108 388h-174z" />
<glyph unicode="&#x2122;" horiz-adv-x="1959" d="M268 1296v97h668v-97h-283v-798h-102v798h-283zM1014 496v897h157l226 -652l35 -108q2 7 11.5 42.5t18.5 65.5l211 652h162v-897h-102v659q0 117 2 156l-35 -115l-227 -700h-89l-235 675q-21 60 -35 123q2 -33 2 -139v-659h-102z" />
<glyph unicode="&#x25fc;" horiz-adv-x="972" d="M0 0v973h973v-973h-973z" />
</font>
</defs>
</svg>
