<!-- Generated by IcoMoon.io -->
<svg version="1.1" xmlns="http://www.w3.org/2000/svg" width="1024" height="1024" viewBox="0 0 1024 1024">
<title></title>
<g id="icomoon-ignore">
</g>
<path d="M947.2 102.4h-128v-25.6c0-14.131-11.469-25.6-25.6-25.6s-25.6 11.469-25.6 25.6v25.6h-512v-25.6c0-14.131-11.469-25.6-25.6-25.6s-25.6 11.469-25.6 25.6v25.6h-128c-42.342 0-76.8 34.458-76.8 76.8v716.8c0 42.342 34.458 76.8 76.8 76.8h870.4c42.342 0 76.8-34.458 76.8-76.8v-716.8c0-42.342-34.458-76.8-76.8-76.8zM76.8 153.6h128v76.8c0 14.131 11.469 25.6 25.6 25.6s25.6-11.469 25.6-25.6v-76.8h512v76.8c0 14.131 11.469 25.6 25.6 25.6s25.6-11.469 25.6-25.6v-76.8h128c14.131 0 25.6 11.469 25.6 25.6v128h-921.6v-128c0-14.131 11.469-25.6 25.6-25.6zM947.2 921.6h-870.4c-14.131 0-25.6-11.469-25.6-25.6v-537.6h921.6v537.6c0 14.131-11.469 25.6-25.6 25.6zM435.2 793.6c-6.554 0-13.107-2.509-18.125-7.475l-102.4-102.4c-9.984-9.984-9.984-26.214 0-36.198s26.214-9.984 36.198 0l84.275 84.275 237.875-237.875c9.984-9.984 26.214-9.984 36.198 0s9.984 26.214 0 36.198l-256 256c-5.018 5.018-11.571 7.475-18.125 7.475z"></path>
</svg>
