<!-- Generated by IcoMoon.io -->
<svg version="1.1" xmlns="http://www.w3.org/2000/svg" width="1024" height="1024" viewBox="0 0 1024 1024">
<title></title>
<g id="icomoon-ignore">
</g>
<path d="M921.6 347.802l-271.002-271.002c-9.626-9.626-22.528-14.95-36.198-14.95s-26.573 5.325-36.198 14.95l-15.002 15.002c-14.848 14.848-25.6 40.806-25.6 61.798v51.2c0 7.27-5.427 20.429-10.598 25.6l-143.002 143.002c-5.171 5.171-18.33 10.598-25.6 10.598h-51.2c-20.992 0-46.95 10.752-61.798 25.6l-15.002 15.002c-19.968 19.968-19.968 52.429 0 72.397l79.514 79.514-253.44 329.472c-7.834 10.189-6.912 24.627 2.202 33.69 4.966 4.966 11.52 7.475 18.125 7.475 5.478 0 10.957-1.741 15.616-5.325l329.472-253.44 79.514 79.514c9.626 9.626 22.528 14.95 36.198 14.95s26.573-5.325 36.198-14.95l15.002-15.002c14.848-14.848 25.6-40.806 25.6-61.798v-51.2c0-7.27 5.427-20.429 10.598-25.6l143.002-143.002c5.171-5.171 18.33-10.598 25.6-10.598h51.2c20.992 0 46.95-10.752 61.798-25.6l15.002-15.002c9.626-9.626 14.95-22.528 14.95-36.198s-5.325-26.573-14.95-36.198zM216.781 781.619l129.69-168.602 38.912 38.912-168.602 129.69zM870.4 399.002c-5.171 5.171-18.33 10.598-25.6 10.598h-51.2c-20.992 0-46.95 10.752-61.798 25.6l-143.002 143.002c-14.848 14.848-25.6 40.806-25.6 61.798v51.2c0 7.27-5.427 20.429-10.598 25.6l-14.95 14.95c0 0-0.051 0-0.051 0v0.051l-271.002-271.002 15.002-15.002c5.171-5.171 18.33-10.598 25.6-10.598h51.2c20.992 0 46.95-10.752 61.798-25.6l143.002-143.002c14.848-14.848 25.6-40.806 25.6-61.798v-51.2c0-7.27 5.427-20.429 10.598-25.6l15.002-15.002 271.002 271.002-15.002 15.002z"></path>
</svg>
